<svg width="136" height="100" viewBox="0 0 136 100" fill="none" xmlns="http://www.w3.org/2000/svg">
<g id="Frame" opacity="0.5" clip-path="url(#clip0_653_6998)">
<g id="Group">
<path id="Vector" d="M133.107 104.365C130.506 105.697 127.304 104.679 125.961 102.064H125.961C117.815 86.1897 96.1881 63.4323 67.9997 63.4323C42.7197 63.4323 20.2539 82.1567 10.0385 102.064C8.69472 104.669 5.49447 105.697 2.88736 104.358C0.280517 103.019 -0.751171 99.8248 0.584126 97.2158C12.321 74.2974 38.1315 52.8073 67.9997 52.8073C102.063 52.8073 126.46 79.7289 135.415 97.2158C136.752 99.8275 135.719 103.028 133.107 104.365ZM2.06419 47.3089L13.8962 57.9827C16.0876 59.9598 19.4456 59.7619 21.3993 57.5965C23.3644 55.4179 23.1917 52.0588 21.0131 50.0934L9.18108 39.4195C7.00322 37.4547 3.64413 37.6268 1.67797 39.8058C-0.287124 41.9844 -0.114467 45.3435 2.06419 47.3089ZM122.103 57.9827L133.935 47.3089C136.113 45.3435 136.286 41.9844 134.321 39.8058C132.356 37.6274 128.997 37.4542 126.818 39.4195L114.986 50.0934C112.808 52.0585 112.635 55.4179 114.6 57.5965C116.556 59.7643 119.914 59.9574 122.103 57.9827ZM67.9995 36.8034C70.9336 36.8034 73.312 34.4247 73.312 31.4909V15.5391C73.312 12.6052 70.9336 10.2266 67.9995 10.2266C65.0654 10.2266 62.687 12.6052 62.687 15.5391V31.4909C62.6873 34.425 65.0657 36.8034 67.9995 36.8034ZM94.0971 99.6362C94.0971 114.048 82.3897 125.773 67.9997 125.773C53.6098 125.773 41.9024 114.048 41.9024 99.6362C41.9024 85.2242 53.6098 73.499 67.9997 73.499C82.3897 73.499 94.0971 85.2242 94.0971 99.6362ZM83.4724 99.6362C83.4724 91.0828 76.5316 84.124 68 84.124C59.4684 84.124 52.5274 91.0828 52.5274 99.6362C52.5274 108.19 59.4681 115.148 67.9997 115.148C76.5314 115.148 83.4724 108.19 83.4724 99.6362Z" fill="white"/>
</g>
</g>
<defs>
<clipPath id="clip0_653_6998">
<rect width="136" height="136" fill="white"/>
</clipPath>
</defs>
</svg>
