<svg width="52" height="46" viewBox="0 0 52 46" fill="none" xmlns="http://www.w3.org/2000/svg">
<g id="Group">
<path id="Vector" d="M38.1985 25.2261C38.1985 17.9162 31.7238 12.0844 24.0739 12.9113C18.2651 13.539 13.5815 18.1035 12.9239 23.7796C12.3721 28.5406 14.5839 32.8365 18.1907 35.3375C19.5423 36.2748 20.3899 37.7546 20.3899 39.3739V39.5656H30.6482V39.4531C30.6482 37.8526 31.4071 36.3173 32.7515 35.4032C36.0428 33.1649 38.1985 29.4423 38.1985 25.2261Z" fill="white"/>
<path id="Vector_2" d="M29.5474 42.7823H21.4927C20.8841 42.7823 20.3906 42.3 20.3906 41.7051C20.3906 41.1103 20.8841 40.6279 21.4927 40.6279H29.5474C30.156 40.6279 30.6495 41.1103 30.6495 41.7051C30.6489 42.3005 30.156 42.7823 29.5474 42.7823Z" fill="white"/>
<path id="Vector_3" d="M29.5474 46.0001H21.4927C20.8841 46.0001 20.3906 45.5178 20.3906 44.9229C20.3906 44.328 20.8841 43.8457 21.4927 43.8457H29.5474C30.156 43.8457 30.6495 44.328 30.6495 44.9229C30.6489 45.5178 30.156 46.0001 29.5474 46.0001Z" fill="white"/>
<path id="Vector_4" d="M29.6776 42.7647L22.1351 45.5279C21.5651 45.7368 20.93 45.4541 20.7169 44.8975C20.5032 44.3403 20.7923 43.7196 21.3618 43.5108L28.9044 40.7475C29.4744 40.5387 30.1094 40.8213 30.3231 41.3779C30.5362 41.9351 30.2471 42.5558 29.6776 42.7647Z" fill="white"/>
<g id="Vector_5">
<path d="M22.9444 39.5655V30.5011C22.9444 29.7781 23.5442 29.1924 24.2833 29.1924H29.0082C29.7478 29.1924 30.3471 28.6062 30.3471 27.8838V26.5352C30.3471 25.8123 29.7473 25.2266 29.0082 25.2266H28.5334C27.7938 25.2266 27.1946 25.8128 27.1946 26.5352C27.1946 27.2582 26.5948 27.8439 25.8557 27.8439H25.5781C24.8384 27.8439 24.2392 27.2577 24.2392 26.5352C24.2392 25.8123 23.6395 25.2266 22.9003 25.2266H22.0313C21.2916 25.2266 20.6924 25.8128 20.6924 26.5352V27.9403" fill="white"/>
<path d="M22.9444 39.5655V30.5011C22.9444 29.7781 23.5442 29.1924 24.2833 29.1924H29.0082C29.7478 29.1924 30.3471 28.6062 30.3471 27.8838V26.5352C30.3471 25.8123 29.7473 25.2266 29.0082 25.2266H28.5334C27.7938 25.2266 27.1946 25.8128 27.1946 26.5352C27.1946 27.2582 26.5948 27.8439 25.8557 27.8439H25.5781C24.8384 27.8439 24.2392 27.2577 24.2392 26.5352C24.2392 25.8123 23.6395 25.2266 22.9003 25.2266H22.0313C21.2916 25.2266 20.6924 25.8128 20.6924 26.5352V27.9403" stroke="#3483B6" stroke-width="0.550752" stroke-miterlimit="10"/>
</g>
<path id="Vector_6" d="M25.5195 10.0563V1" stroke="white" stroke-width="1.1015" stroke-miterlimit="10" stroke-linecap="round" stroke-linejoin="round"/>
<path id="Vector_7" d="M11.4418 15.7565L4.89062 9.35254" stroke="white" stroke-width="1.1015" stroke-miterlimit="10" stroke-linecap="round" stroke-linejoin="round"/>
<path id="Vector_8" d="M10.2653 29.5156H1" stroke="white" stroke-width="1.1015" stroke-miterlimit="10" stroke-linecap="round" stroke-linejoin="round"/>
<path id="Vector_9" d="M50.9997 29.5156H41.7344" stroke="white" stroke-width="1.1015" stroke-miterlimit="10" stroke-linecap="round" stroke-linejoin="round"/>
<path id="Vector_10" d="M46.1489 9.35254L39.5977 15.7565" stroke="white" stroke-width="1.1015" stroke-miterlimit="10" stroke-linecap="round" stroke-linejoin="round"/>
</g>
</svg>
