<svg width="40" height="40" viewBox="0 0 40 40" fill="none" xmlns="http://www.w3.org/2000/svg">
<g id="CaretLeft">
<path id="Vector" d="M25.8844 31.6163C26.0005 31.7325 26.0926 31.8703 26.1555 32.0221C26.2184 32.1738 26.2507 32.3365 26.2507 32.5007C26.2507 32.6649 26.2184 32.8276 26.1555 32.9793C26.0926 33.1311 26.0005 33.2689 25.8844 33.3851C25.7682 33.5012 25.6304 33.5933 25.4786 33.6562C25.3269 33.719 25.1643 33.7514 25 33.7514C24.8358 33.7514 24.6731 33.719 24.5214 33.6562C24.3696 33.5933 24.2318 33.5012 24.1156 33.3851L11.6156 20.8851C11.4994 20.769 11.4072 20.6311 11.3443 20.4794C11.2814 20.3276 11.249 20.165 11.249 20.0007C11.249 19.8364 11.2814 19.6738 11.3443 19.522C11.4072 19.3703 11.4994 19.2324 11.6156 19.1163L24.1156 6.61632C24.3502 6.38177 24.6683 6.25 25 6.25C25.3317 6.25 25.6498 6.38177 25.8844 6.61632C26.1189 6.85087 26.2507 7.16899 26.2507 7.50069C26.2507 7.8324 26.1189 8.15052 25.8844 8.38507L14.2672 20.0007L25.8844 31.6163Z" fill="#A3A3A4"/>
</g>
</svg>
