<svg width="496" height="485" viewBox="0 0 496 485" fill="none" xmlns="http://www.w3.org/2000/svg">
<g clip-path="url(#clip0_857_18335)">
<path d="M136.841 21.4213L100.416 160.066L100.9 160.193L137.324 21.5483L136.841 21.4213Z" fill="#0BC2EF"/>
</g>
<g clip-path="url(#clip1_857_18335)">
<path d="M100.749 160.32L100.449 159.92L296.699 9.15039L296.999 9.54039L100.749 160.32Z" fill="#0BC2EF"/>
</g>
<g clip-path="url(#clip2_857_18335)">
<path d="M100.744 159.905L100.461 160.317L177.556 213.343L177.839 212.931L100.744 159.905Z" fill="#0BC2EF"/>
</g>
<g clip-path="url(#clip3_857_18335)">
<path d="M277.857 143.57L177.564 212.912L177.849 213.323L278.141 143.981L277.857 143.57Z" fill="#0BC2EF"/>
</g>
<g clip-path="url(#clip4_857_18335)">
<path d="M278.24 143.831L277.74 143.761L296.6 9.31055L297.1 9.38055L278.24 143.831Z" fill="#0BC2EF"/>
</g>
<g clip-path="url(#clip5_857_18335)">
<path d="M137.285 21.3002L136.957 21.6777L277.826 143.961L278.154 143.583L137.285 21.3002Z" fill="#0BC2EF"/>
</g>
<g clip-path="url(#clip6_857_18335)">
<path d="M278.229 143.688L277.764 143.871L330.551 277.675L331.016 277.491L278.229 143.688Z" fill="#0BC2EF"/>
</g>
<g clip-path="url(#clip7_857_18335)">
<path d="M177.784 212.894L177.59 213.354L330.668 277.797L330.862 277.336L177.784 212.894Z" fill="#0BC2EF"/>
</g>
<g clip-path="url(#clip8_857_18335)">
<path d="M177.43 213.102L162.705 316.822L163.2 316.893L177.925 213.173L177.43 213.102Z" fill="#0BC2EF"/>
</g>
<g clip-path="url(#clip9_857_18335)">
<path d="M330.724 277.249L162.941 316.664L163.056 317.151L330.838 277.736L330.724 277.249Z" fill="#0BC2EF"/>
</g>
<g clip-path="url(#clip10_857_18335)">
<path d="M0.349766 255L0.00976562 254.64L100.43 159.93L100.77 160.3L0.349766 255Z" fill="#0BC2EF"/>
</g>
<g clip-path="url(#clip11_857_18335)">
<path d="M100.828 160.022L100.363 160.207L162.709 316.953L163.173 316.768L100.828 160.022Z" fill="#0BC2EF"/>
</g>
<g clip-path="url(#clip12_857_18335)">
<path d="M398.669 169.86L277.939 144.04L278.039 143.55L398.769 169.37L398.669 169.86Z" fill="#0BC2EF"/>
</g>
<g clip-path="url(#clip13_857_18335)">
<path d="M398.434 169.464L330.676 277.563L331.099 277.829L398.858 169.73L398.434 169.464Z" fill="#0BC2EF"/>
</g>
<g clip-path="url(#clip14_857_18335)">
<path d="M297.072 9.21617L296.65 9.48438L398.521 169.76L398.943 169.491L297.072 9.21617Z" fill="#0BC2EF"/>
</g>
<g clip-path="url(#clip15_857_18335)">
<path d="M418.699 116.981L398.484 169.505L398.951 169.684L419.166 117.16L418.699 116.981Z" fill="#0BC2EF"/>
</g>
<g clip-path="url(#clip16_857_18335)">
<path d="M494.991 259.759L398.551 169.799L398.891 169.439L495.341 259.389L494.991 259.759Z" fill="#0BC2EF"/>
</g>
<g clip-path="url(#clip17_857_18335)">
<path d="M330.8 277.84L330.74 277.35L495.14 259.32L495.19 259.82L330.8 277.84Z" fill="#0BC2EF"/>
</g>
<g clip-path="url(#clip18_857_18335)">
<path d="M335.25 361.26L330.52 277.61L331.02 277.58L335.75 361.24L335.25 361.26Z" fill="#0BC2EF"/>
</g>
<g clip-path="url(#clip19_857_18335)">
<path d="M335.558 361.021L335.463 361.512L445.464 382.894L445.559 382.403L335.558 361.021Z" fill="#0BC2EF"/>
</g>
<g clip-path="url(#clip20_857_18335)">
<path d="M335.629 361.459L335.359 361.039L495.029 259.359L495.299 259.779L335.629 361.459Z" fill="#0BC2EF"/>
</g>
<g clip-path="url(#clip21_857_18335)">
<path d="M352.88 471.59L335.25 361.29L335.74 361.21L353.37 471.5L352.88 471.59Z" fill="#0BC2EF"/>
</g>
<g clip-path="url(#clip22_857_18335)">
<path d="M335.293 360.99L204.875 484.062L205.218 484.426L335.636 361.354L335.293 360.99Z" fill="#0BC2EF"/>
</g>
<g clip-path="url(#clip23_857_18335)">
<path d="M163.031 316.66L162.906 317.145L335.446 361.541L335.57 361.057L163.031 316.66Z" fill="#0BC2EF"/>
</g>
<g clip-path="url(#clip24_857_18335)">
<path d="M162.665 316.794L141.207 416.123L141.696 416.229L163.153 316.9L162.665 316.794Z" fill="#0BC2EF"/>
</g>
<g clip-path="url(#clip25_857_18335)">
<path d="M204.81 484.4L141.23 416.35L141.6 416.01L205.18 484.06L204.81 484.4Z" fill="#0BC2EF"/>
</g>
<g clip-path="url(#clip26_857_18335)">
<path d="M128.031 459.86L127.551 459.71L141.181 416.1L141.661 416.25L128.031 459.86Z" fill="#0BC2EF"/>
</g>
<g clip-path="url(#clip27_857_18335)">
<path d="M141.36 416.42L65.3496 399.22L65.4596 398.74L141.47 415.93L141.36 416.42Z" fill="#0BC2EF"/>
</g>
<g clip-path="url(#clip28_857_18335)">
<path d="M335.446 361.059L141.338 415.876L141.474 416.357L335.582 361.54L335.446 361.059Z" fill="#0BC2EF"/>
</g>
<g clip-path="url(#clip29_857_18335)">
<path d="M141.231 416.341L59.4707 320.891L59.8507 320.561L141.611 416.011L141.231 416.341Z" fill="#0BC2EF"/>
</g>
<g clip-path="url(#clip30_857_18335)">
<path d="M162.951 316.63L59.6523 320.472L59.6709 320.971L162.97 317.129L162.951 316.63Z" fill="#0BC2EF"/>
</g>
<g clip-path="url(#clip31_857_18335)">
<path d="M100.301 160.036L59.4727 320.679L59.9573 320.802L100.785 160.159L100.301 160.036Z" fill="#0BC2EF"/>
</g>
<g clip-path="url(#clip32_857_18335)">
<path d="M59.47 320.9L0 254.99L0.37 254.65L59.84 320.56L59.47 320.9Z" fill="#0BC2EF"/>
</g>
<g clip-path="url(#clip33_857_18335)">
<path d="M35.94 363.149L35.5 362.919L59.43 320.609L59.88 320.839L35.94 363.149Z" fill="#0BC2EF"/>
</g>
<g clip-path="url(#clip34_857_18335)">
<path d="M100.469 160.33L38.8691 121.49L39.1391 121.07L100.739 159.91L100.469 160.33Z" fill="#0BC2EF"/>
</g>
<g clip-path="url(#clip35_857_18335)">
<path d="M204.229 80.38L203.789 80.15L246.059 0L246.509 0.239998L204.229 80.38Z" fill="#0BC2EF"/>
</g>
<g clip-path="url(#clip36_857_18335)">
<path d="M278.171 143.96L277.811 143.62L377.391 39.5195L377.761 39.8595L278.171 143.96Z" fill="#0BC2EF"/>
</g>
<defs>
<clipPath id="clip0_857_18335">
<rect width="36.9082" height="138.772" fill="white" transform="translate(100.416 21.4209)"/>
</clipPath>
<clipPath id="clip1_857_18335">
<rect width="196.55" height="151.17" fill="white" transform="translate(100.449 9.15039)"/>
</clipPath>
<clipPath id="clip2_857_18335">
<rect width="77.3783" height="53.4375" fill="white" transform="translate(100.461 159.905)"/>
</clipPath>
<clipPath id="clip3_857_18335">
<rect width="100.577" height="69.7535" fill="white" transform="translate(177.564 143.57)"/>
</clipPath>
<clipPath id="clip4_857_18335">
<rect width="19.36" height="134.52" fill="white" transform="translate(277.74 9.31055)"/>
</clipPath>
<clipPath id="clip5_857_18335">
<rect width="141.197" height="122.661" fill="white" transform="translate(136.957 21.2998)"/>
</clipPath>
<clipPath id="clip6_857_18335">
<rect width="53.2527" height="133.987" fill="white" transform="translate(277.764 143.688)"/>
</clipPath>
<clipPath id="clip7_857_18335">
<rect width="153.273" height="64.9035" fill="white" transform="translate(177.59 212.894)"/>
</clipPath>
<clipPath id="clip8_857_18335">
<rect width="15.2196" height="103.79" fill="white" transform="translate(162.705 213.103)"/>
</clipPath>
<clipPath id="clip9_857_18335">
<rect width="167.897" height="39.9016" fill="white" transform="translate(162.941 277.249)"/>
</clipPath>
<clipPath id="clip10_857_18335">
<rect width="100.76" height="95.07" fill="white" transform="translate(0.00976562 159.93)"/>
</clipPath>
<clipPath id="clip11_857_18335">
<rect width="62.8098" height="156.931" fill="white" transform="translate(100.363 160.022)"/>
</clipPath>
<clipPath id="clip12_857_18335">
<rect width="120.83" height="26.31" fill="white" transform="translate(277.939 143.55)"/>
</clipPath>
<clipPath id="clip13_857_18335">
<rect width="68.1818" height="108.365" fill="white" transform="translate(330.676 169.464)"/>
</clipPath>
<clipPath id="clip14_857_18335">
<rect width="102.293" height="160.543" fill="white" transform="translate(296.65 9.21582)"/>
</clipPath>
<clipPath id="clip15_857_18335">
<rect width="20.6814" height="52.7039" fill="white" transform="translate(398.484 116.98)"/>
</clipPath>
<clipPath id="clip16_857_18335">
<rect width="96.79" height="90.32" fill="white" transform="translate(398.551 169.439)"/>
</clipPath>
<clipPath id="clip17_857_18335">
<rect width="164.45" height="18.52" fill="white" transform="translate(330.74 259.32)"/>
</clipPath>
<clipPath id="clip18_857_18335">
<rect width="5.23001" height="83.68" fill="white" transform="translate(330.52 277.58)"/>
</clipPath>
<clipPath id="clip19_857_18335">
<rect width="110.097" height="21.8729" fill="white" transform="translate(335.463 361.021)"/>
</clipPath>
<clipPath id="clip20_857_18335">
<rect width="159.94" height="102.1" fill="white" transform="translate(335.359 259.359)"/>
</clipPath>
<clipPath id="clip21_857_18335">
<rect width="18.12" height="110.38" fill="white" transform="translate(335.25 361.21)"/>
</clipPath>
<clipPath id="clip22_857_18335">
<rect width="130.761" height="123.436" fill="white" transform="translate(204.875 360.99)"/>
</clipPath>
<clipPath id="clip23_857_18335">
<rect width="172.664" height="44.8812" fill="white" transform="translate(162.906 316.66)"/>
</clipPath>
<clipPath id="clip24_857_18335">
<rect width="21.9462" height="99.4343" fill="white" transform="translate(141.207 316.794)"/>
</clipPath>
<clipPath id="clip25_857_18335">
<rect width="63.95" height="68.39" fill="white" transform="translate(141.23 416.01)"/>
</clipPath>
<clipPath id="clip26_857_18335">
<rect width="14.11" height="43.76" fill="white" transform="translate(127.551 416.1)"/>
</clipPath>
<clipPath id="clip27_857_18335">
<rect width="76.12" height="17.68" fill="white" transform="translate(65.3496 398.74)"/>
</clipPath>
<clipPath id="clip28_857_18335">
<rect width="194.244" height="55.2985" fill="white" transform="translate(141.338 361.059)"/>
</clipPath>
<clipPath id="clip29_857_18335">
<rect width="82.14" height="95.78" fill="white" transform="translate(59.4707 320.561)"/>
</clipPath>
<clipPath id="clip30_857_18335">
<rect width="103.317" height="4.3416" fill="white" transform="translate(59.6523 316.63)"/>
</clipPath>
<clipPath id="clip31_857_18335">
<rect width="41.3125" height="160.766" fill="white" transform="translate(59.4727 160.036)"/>
</clipPath>
<clipPath id="clip32_857_18335">
<rect width="59.84" height="66.25" fill="white" transform="translate(0 254.65)"/>
</clipPath>
<clipPath id="clip33_857_18335">
<rect width="24.38" height="42.54" fill="white" transform="translate(35.5 320.609)"/>
</clipPath>
<clipPath id="clip34_857_18335">
<rect width="61.87" height="39.26" fill="white" transform="translate(38.8691 121.07)"/>
</clipPath>
<clipPath id="clip35_857_18335">
<rect width="42.72" height="80.38" fill="white" transform="translate(203.789)"/>
</clipPath>
<clipPath id="clip36_857_18335">
<rect width="99.95" height="104.44" fill="white" transform="translate(277.811 39.5195)"/>
</clipPath>
</defs>
</svg>
