<svg width="20" height="21" viewBox="0 0 20 21" fill="none" xmlns="http://www.w3.org/2000/svg">
<g id="Line Rounded/Email">
<g id="Email">
<path id="Vector" d="M18.3337 6.45117V14.7845C18.3337 15.337 18.1142 15.8669 17.7235 16.2576C17.3328 16.6483 16.8029 16.8678 16.2503 16.8678H3.75033C3.19779 16.8678 2.66789 16.6483 2.27719 16.2576C1.88649 15.8669 1.66699 15.337 1.66699 14.7845V6.45117" stroke="white" stroke-width="1.4" stroke-linecap="round" stroke-linejoin="round"/>
<path id="Vector_2" d="M18.3337 6.45052C18.3337 5.89799 18.1142 5.36808 17.7235 4.97738C17.3328 4.58668 16.8029 4.36719 16.2503 4.36719H3.75033C3.19779 4.36719 2.66789 4.58668 2.27719 4.97738C1.88649 5.36808 1.66699 5.89799 1.66699 6.45052L8.89616 10.9644C9.22727 11.1714 9.60987 11.2811 10.0003 11.2811C10.3908 11.2811 10.7734 11.1714 11.1045 10.9644L18.3337 6.45052Z" stroke="white" stroke-width="1.4" stroke-linecap="round" stroke-linejoin="round"/>
</g>
</g>
</svg>
