<svg width="50" height="45" viewBox="0 0 50 45" fill="none" xmlns="http://www.w3.org/2000/svg">
<path d="M28.2697 45H5.3061C2.37552 45 0 43.1324 0 40.8284V4.17155C0 1.86759 2.37552 0 5.3061 0H28.2697C31.2003 0 33.5758 1.86759 33.5758 4.17155V40.8284C33.5758 43.1324 31.2003 45 28.2697 45Z" fill="#C1C1C2"/>
<path d="M30.5705 45H7.60688C4.6763 45 2.30078 43.1324 2.30078 40.8284V4.17155C2.30078 1.86759 4.6763 0 7.60688 0H30.5705C33.501 0 35.8766 1.86759 35.8766 4.17155V40.8284C35.8766 43.1324 33.501 45 30.5705 45Z" fill="white"/>
<path d="M28.354 38.099H9.43352C7.57423 38.099 6.06738 36.9139 6.06738 35.4526V5.87979C6.06738 4.41805 7.57483 3.2334 9.43352 3.2334H28.354C30.2133 3.2334 31.7201 4.41805 31.7201 5.87979V35.4526C31.7201 36.9139 30.2127 38.099 28.354 38.099Z" fill="#A2C6DD"/>
<path d="M19.089 43.7057C20.3598 43.7057 21.3899 42.8959 21.3899 41.8968C21.3899 40.8978 20.3598 40.0879 19.089 40.0879C17.8182 40.0879 16.7881 40.8978 16.7881 41.8968C16.7881 42.8959 17.8182 43.7057 19.089 43.7057Z" fill="#C1C1C2"/>
<path d="M49.9998 10.0557H18.8936V14.0341H49.9998V10.0557Z" fill="white"/>
<path d="M29.115 17.1895H9.47266V21.1679H29.115V17.1895Z" fill="white"/>
<path d="M29.115 24.3232H9.47266V28.3016H29.115V24.3232Z" fill="white"/>
</svg>
