<svg width="117" height="23" viewBox="0 0 117 23" fill="none" xmlns="http://www.w3.org/2000/svg">
<g id="Logo/Facebook">
<path id="Vector" d="M7.91158 22.3815H3.53275V11.3489H0.549805V7.75698H3.53263V5.20103C3.53263 2.17224 4.85194 0 9.21891 0C10.1425 0 11.5926 0.188155 11.5926 0.188155V3.5235H10.0696C8.51772 3.5235 7.91181 4.00058 7.91181 5.31954V7.75698H11.5345L11.2119 11.3489H7.91169L7.91158 22.3815ZM17.9589 7.46993C17.8951 7.46993 17.8295 7.47228 17.7645 7.47392C13.7042 7.47392 11.8465 10.5607 11.8465 14.9426C11.8465 20.4625 14.2562 22.6717 17.7962 22.6717C19.8216 22.6717 21.1523 21.8101 21.9611 20.2022V22.383H26.126V7.7585H21.9611V10.0076C21.3007 8.56057 19.9328 7.48708 17.9589 7.46993ZM19.0179 10.9257C20.7233 10.9257 21.7468 12.1279 21.7468 14.1728L21.7508 16.2614C21.7508 17.6397 20.9054 19.2521 19.0179 19.2521C16.1162 19.2521 16.1937 16.0855 16.1937 15.0308C16.1937 11.483 17.7397 10.9257 19.0179 10.9257ZM27.808 15.0715C27.808 13.2944 27.7239 7.47944 35.2197 7.47944C38.2287 7.47944 39.4851 8.44641 39.4851 8.44641L38.4753 11.612C38.4753 11.612 37.2205 10.9137 35.5854 10.9137C33.4913 10.9137 32.155 12.1407 32.155 14.2995L32.1573 15.8475C32.1573 17.9219 33.4466 19.3066 35.5897 19.3066C37.0793 19.3066 38.4522 18.6017 38.4522 18.6017L39.4595 21.7012C39.4595 21.7012 38.3106 22.6743 35.2408 22.6743C28.1035 22.6743 27.8081 17.4572 27.8081 15.0715H27.808ZM63.9054 7.47392C67.9659 7.47392 69.8528 10.5607 69.8528 14.9426C69.8528 20.4625 67.443 22.6717 63.903 22.6717C61.8776 22.6717 60.3804 21.8102 59.5716 20.2022V22.383L55.4591 22.3814V0.444665L59.8255 0.059782V9.80941C60.4557 8.10369 62.5267 7.47392 63.9055 7.47392H63.9054ZM62.6813 10.9257C60.9759 10.9257 59.8255 12.1279 59.8255 14.1728L59.8214 16.2614C59.8189 17.6397 60.6181 19.2521 62.6813 19.2521C65.583 19.2521 65.5055 16.0855 65.5055 15.0308C65.5055 11.483 63.9596 10.9257 62.6813 10.9257ZM47.0612 7.48602C42.4559 7.48602 40.0246 10.0238 40.0246 14.5336V15.3715C40.0246 21.2248 43.4389 22.7318 47.5094 22.7318C51.466 22.7318 53.2568 21.6134 53.2568 21.6134L52.4398 18.6348C52.4398 18.6348 50.3332 19.5407 48.0329 19.5407C45.6484 19.5407 44.6228 18.9265 44.36 16.6103H53.6059V14.2208C53.6059 9.32881 50.8772 7.4859 47.0611 7.4859L47.0612 7.48602ZM47.1722 10.4685C48.7663 10.4685 49.7993 11.4565 49.7426 13.7479H44.368C44.4612 11.3363 45.5751 10.4687 47.1722 10.4687V10.4685ZM78.5592 7.46594C73.8299 7.46594 71.3402 10.1595 71.3402 14.9866C71.3402 21.6096 75.632 22.6757 78.5671 22.6757C82.8641 22.6757 85.7228 20.3376 85.7228 15.0467C85.7228 9.53986 82.5085 7.46594 78.5592 7.46594ZM78.4997 10.9376C80.5793 10.9376 81.4033 12.5106 81.4033 14.3012V15.8406C81.4033 18.0096 80.2503 19.2642 78.4918 19.2642C76.8473 19.2642 75.6915 18.0907 75.6915 15.8406V14.3012C75.6915 11.9014 77.0668 10.9376 78.4997 10.9376ZM94.4214 7.46594C89.6921 7.46594 87.2023 10.1595 87.2023 14.9866C87.2023 21.6096 91.4941 22.6757 94.4293 22.6757C98.7261 22.6757 101.585 20.3376 101.585 15.0467C101.585 9.53986 98.3705 7.46594 94.4214 7.46594ZM94.3619 10.9376C96.4414 10.9376 97.2654 12.5106 97.2654 14.3012V15.8406C97.2654 18.0096 96.1123 19.2642 94.354 19.2642C92.7094 19.2642 91.5536 18.0907 91.5536 15.8406V14.3012C91.5536 11.9014 92.9289 10.9376 94.3619 10.9376ZM103.235 22.3815V0.444665L107.614 0.059782V14.7632L111.959 7.75698H116.583L112.051 15.0134L116.758 22.3815H112.12L107.614 15.2271V22.3815H103.235Z" fill="#A3A3A4"/>
</g>
</svg>
