<svg width="76" height="30" viewBox="0 0 76 30" fill="none" xmlns="http://www.w3.org/2000/svg">
<path d="M3.15497 10.01H2.12897V8.066H3.15497V10.01ZM5.53097 10.01H4.50497V8.066H5.53097V10.01ZM8.82497 18.974C8.87897 18.974 8.89697 19.01 8.89697 19.046V19.928C8.89697 19.964 8.87897 20 8.82497 20H8.75297C7.63697 20 6.80897 19.622 6.26897 19.028L6.32297 19.136C5.72897 19.568 4.82897 20 3.62297 20C1.94897 20 0.994969 19.046 0.994969 17.3V14.006C0.994969 12.278 2.16497 11.306 3.83897 11.306C4.75697 11.306 5.90897 11.486 6.77297 11.738V17.12C6.77297 18.434 7.42097 18.974 8.75297 18.974H8.82497ZM3.85697 18.974C4.79297 18.992 5.42297 18.506 5.81897 18.29C5.67497 17.948 5.60297 17.534 5.60297 17.12V12.53C4.99097 12.386 4.43297 12.332 3.85697 12.332C2.72297 12.332 2.16497 12.836 2.16497 14.114V17.192C2.16497 18.38 2.75897 18.956 3.85697 18.974ZM14.0036 18.974C14.0396 18.974 14.0576 19.01 14.0576 19.046V19.928C14.0576 19.964 14.0396 20 14.0036 20H13.9316C12.7436 20 11.8796 19.586 11.3576 18.92C10.8356 19.586 9.97163 20 8.76562 20H8.69362C8.65762 20 8.63962 19.964 8.63962 19.928V19.046C8.63962 19.01 8.65762 18.974 8.69362 18.974H8.76562C10.0796 18.974 10.7636 18.47 10.7636 17.12V12.206H11.9336V17.12C11.9336 18.47 12.5996 18.974 13.9316 18.974H14.0036ZM9.64763 21.44H10.6736V23.384H9.64763V21.44ZM12.0236 21.44H13.0496V23.384H12.0236V21.44ZM13.8616 20C13.8256 20 13.8076 19.964 13.8076 19.928V19.046C13.8076 19.01 13.8256 18.974 13.8616 18.974H16.2196V11.45H17.3896V20H13.8616ZM15.6436 21.44H16.8136V23.384H15.6436V21.44ZM24.3639 18.974C24.3999 18.974 24.4359 19.01 24.4359 19.046V19.928C24.4359 19.964 24.3999 20 24.3639 20H22.3479V20.54C22.3479 22.394 21.2859 23.438 19.4679 23.438C18.9279 23.438 18.4059 23.348 18.0819 23.258L18.2979 22.232C18.6219 22.358 18.9279 22.412 19.4859 22.412C20.6379 22.412 21.1779 21.854 21.1779 20.558V11.45H22.3479V18.974H24.3639ZM33.0707 18.974C33.1067 18.974 33.1427 19.01 33.1427 19.046V19.928C33.1427 19.964 33.1067 20 33.0707 20H30.8387C29.9027 20 29.2187 19.766 28.6967 19.262C28.0307 19.784 27.3287 20 26.3927 20H24.2327C24.1967 20 24.1787 19.964 24.1787 19.928V19.046C24.1787 19.01 24.1967 18.974 24.2327 18.974H26.4107C27.0407 18.974 27.5627 18.83 28.0667 18.434L25.0247 13.592V12.314C25.7267 11.918 27.1487 11.288 28.5707 11.288C30.7307 11.288 31.9727 12.26 31.9727 13.934C31.9727 15.338 30.5507 17.228 29.4707 18.488L29.4347 18.524C29.7947 18.848 30.1907 18.974 30.8027 18.974H33.0707ZM28.5707 12.332C27.6887 12.332 26.7347 12.674 25.9967 13.052L28.8047 17.66C29.7767 16.508 30.8027 15.104 30.8027 13.934C30.8027 12.854 29.9387 12.332 28.5707 12.332ZM32.9339 20C32.8979 20 32.8799 19.964 32.8799 19.928V19.046C32.8799 19.01 32.8979 18.974 32.9339 18.974H34.9859V7.004H36.1559V20H32.9339ZM39.0698 7.004H40.2397V20H39.0698V7.004Z" fill="white"/>
<path d="M63 4.4375C60.9109 4.4375 58.8688 5.05698 57.1318 6.2176C55.3948 7.37822 54.041 9.02786 53.2415 10.9579C52.4421 12.8879 52.2329 15.0117 52.6405 17.0606C53.048 19.1096 54.054 20.9916 55.5312 22.4688C57.0084 23.946 58.8904 24.952 60.9394 25.3595C62.9883 25.7671 65.1121 25.5579 67.0421 24.7585C68.9721 23.959 70.6218 22.6052 71.7824 20.8682C72.943 19.1312 73.5625 17.0891 73.5625 15C73.5595 12.1996 72.4458 9.51466 70.4656 7.53445C68.4853 5.55424 65.8004 4.44046 63 4.4375ZM71.9375 15C71.9384 16.1466 71.7177 17.2826 71.2875 18.3455L66.7477 15.5535C66.5546 15.4344 66.3387 15.3572 66.1139 15.327L63.7963 15.0142C63.4769 14.9726 63.1523 15.0261 62.8633 15.1681C62.5742 15.3101 62.3335 15.5343 62.1713 15.8125H61.2856L60.8997 15.0142C60.793 14.7919 60.6368 14.597 60.4432 14.4444C60.2496 14.2918 60.0236 14.1855 59.7825 14.1337L58.97 13.958L59.7642 12.5625H61.4613C61.736 12.562 62.006 12.4921 62.2464 12.3594L63.4906 11.6728C63.5999 11.6119 63.702 11.539 63.7952 11.4555L66.5283 8.98344C66.8023 8.73787 66.9844 8.40624 67.0446 8.04324C67.1048 7.68025 67.0395 7.30758 66.8594 6.98672L66.8228 6.9207C68.3521 7.64586 69.6445 8.78985 70.5498 10.2199C71.4551 11.65 71.9363 13.3075 71.9375 15ZM54.0625 15C54.0611 13.6716 54.3575 12.3597 54.9298 11.1609L56.0816 14.2352C56.1775 14.4898 56.3359 14.7161 56.5421 14.8936C56.7483 15.071 56.9957 15.1939 57.2617 15.2509L59.4382 15.7191L59.8252 16.5234C59.9595 16.797 60.1676 17.0276 60.426 17.1891C60.6844 17.3506 60.9829 17.4367 61.2877 17.4375H61.438L60.7037 19.0859C60.5743 19.3761 60.5329 19.6979 60.5845 20.0115C60.6361 20.325 60.7785 20.6166 60.9941 20.85L61.0084 20.8642L63 22.9158L62.803 23.9314C60.4689 23.8771 58.2485 22.9127 56.6155 21.2441C54.9825 19.5755 54.0664 17.3347 54.0625 15Z" fill="white"/>
</svg>
