<svg width="24" height="25" viewBox="0 0 24 25" fill="none" xmlns="http://www.w3.org/2000/svg">
<g id="icon / jam-icons / outline &#38; logos / linkedin">
<path id="Vector" d="M21.959 14.2194V21.5984H17.681V14.7134C17.681 12.9834 17.062 11.8034 15.514 11.8034C14.332 11.8034 13.628 12.5994 13.319 13.3684C13.206 13.6434 13.177 14.0264 13.177 14.4114V21.5984H8.897C8.897 21.5984 8.955 9.93837 8.897 8.72937H13.177V10.5534L13.149 10.5954H13.177V10.5534C13.745 9.67837 14.76 8.42737 17.033 8.42737C19.848 8.42737 21.959 10.2674 21.959 14.2194ZM4.421 2.52637C2.958 2.52637 2 3.48637 2 4.74937C2 5.98437 2.93 6.97337 4.365 6.97337H4.393C5.886 6.97337 6.813 5.98437 6.813 4.74937C6.787 3.48637 5.887 2.52637 4.422 2.52637H4.421ZM2.254 21.5984H6.532V8.72937H2.254V21.5984Z" fill="white"/>
</g>
</svg>
