<svg width="205" height="44" viewBox="0 0 205 44" fill="none" xmlns="http://www.w3.org/2000/svg">
<path d="M75.3434 17.7694C74.8489 18.2639 74.0364 18.2639 73.5419 17.7694C73.0475 17.275 73.0475 16.4624 73.5419 15.968L73.5879 15.922L74.1475 15.3624C74.8566 14.6533 76.3361 13.5763 75.236 12.4724C74.7416 11.978 73.929 11.978 73.4308 12.4724L72.3461 13.5571L71.7865 14.1167L64.2012 21.656L68.908 26.0408C71.4683 28.4249 71.3955 32.5529 68.9501 35.0443C68.9654 35.0289 68.9769 35.0174 68.9923 35.0021C73.5611 30.4333 78.1222 25.8262 82.6642 21.2842C83.1586 20.7898 83.1586 19.9772 82.6642 19.4827C82.2272 19.0458 81.5488 18.996 81.0505 19.3256C80.0923 20.3566 79.6707 20.303 78.954 19.5862C78.4595 19.0918 78.4595 18.2792 78.954 17.7848C79.8623 16.8764 80.7516 15.9757 81.6638 15.0634C82.1582 14.569 82.1582 13.7564 81.6638 13.262C81.1694 12.7675 80.3568 12.7675 79.8623 13.262L76.9953 16.129L75.9566 17.1677L75.351 17.7733L75.3434 17.7694Z" fill="#B4254E"/>
<path d="M79.2101 8.49778C79.7045 8.99223 79.7045 9.8048 79.2101 10.2992L77.5619 11.9474C77.0675 12.4418 76.2549 12.4418 75.7605 11.9474C75.266 11.4529 75.266 10.6404 75.7605 10.1459L77.4086 8.49778C77.9031 8.00334 78.7156 8.00334 79.2101 8.49778Z" fill="#B4254E"/>
<path d="M87.6925 7.22532C88.187 7.71977 88.187 8.53234 87.6925 9.02678L84.975 11.7443C84.4806 12.2387 83.668 12.2387 83.1736 11.7443C82.6791 11.2499 82.6791 10.4373 83.1736 9.94284L85.8911 7.22532C86.3855 6.73088 87.1981 6.73088 87.6925 7.22532Z" fill="#B4254E"/>
<path d="M90.4218 11.8484C90.9163 12.3428 90.9163 13.1554 90.4218 13.6498L85.8569 18.2148C85.3624 18.7092 84.5498 18.7092 84.0554 18.2148C83.561 17.7204 83.561 16.9078 84.0554 16.4133L88.6204 11.8484C89.1148 11.3539 89.9274 11.3539 90.4218 11.8484Z" fill="#B4254E"/>
<path d="M95.9915 6.37083C96.4859 6.86527 96.4859 7.67785 95.9915 8.17229L92.975 11.1888C92.4806 11.6832 91.668 11.6832 91.1736 11.1888C90.6791 10.6943 90.6791 9.88176 91.1736 9.38732L94.1901 6.37083C94.6845 5.87639 95.4971 5.87639 95.9915 6.37083Z" fill="#B4254E"/>
<path d="M59.862 35.0864L43.9594 19.1837C41.4719 16.6962 41.4719 12.6257 43.9594 10.1381C46.447 7.65058 50.5175 7.65058 53.005 10.1381L64.3849 21.5218C73.8674 30.6326 77.2174 26.6464 78.1488 25.8108L68.9882 35.0059C66.1097 37.8959 62.4607 37.6889 59.862 35.0902V35.0864Z" fill="#FE346E"/>
<path d="M21.0178 18.663C21.5123 19.1574 22.3248 19.1574 22.8193 18.663C23.3137 18.1686 23.3137 17.356 22.8193 16.8615L22.7733 16.8155L22.2137 16.2559C21.5046 15.5469 20.0251 14.4698 21.129 13.3659C21.6234 12.8715 22.436 12.8715 22.9304 13.3659L24.0151 14.4507L24.5747 15.0103L32.16 22.5495L27.4532 26.9344C24.8929 29.3184 24.9657 33.4464 27.4111 35.9378C27.3957 35.9225 27.3842 35.911 27.3689 35.8957C22.8001 31.3269 18.239 26.7197 13.697 22.1778C13.2026 21.6833 13.2026 20.8707 13.697 20.3763C14.134 19.9394 14.8124 19.8857 15.3106 20.2192C16.2727 21.2502 16.6905 21.1965 17.4072 20.4798C17.9017 19.9853 17.9017 19.1728 17.4072 18.6783C16.4988 17.7699 15.6096 16.8692 14.6974 15.957C14.2029 15.4625 14.2029 14.65 14.6974 14.1517C15.1918 13.6572 16.0044 13.6572 16.4988 14.1517L19.3658 17.0187L20.4046 18.0574L21.0101 18.663H21.0178Z" fill="#FE346E"/>
<path d="M17.154 9.39134C16.6596 9.88578 16.6596 10.6984 17.154 11.1928L18.8022 12.8409C19.2966 13.3354 20.1092 13.3354 20.6036 12.8409C21.0981 12.3465 21.0981 11.5339 20.6036 11.0395L18.9555 9.39134C18.461 8.8969 17.6485 8.8969 17.154 9.39134Z" fill="#FE346E"/>
<path d="M8.66966 8.11888C8.17522 8.61332 8.17522 9.42589 8.66966 9.92033L11.3872 12.6378C11.8816 13.1323 12.6942 13.1323 13.1886 12.6378C13.6831 12.1434 13.6831 11.3308 13.1886 10.8364L10.4711 8.11888C9.97667 7.62444 9.1641 7.62444 8.66966 8.11888Z" fill="#FE346E"/>
<path d="M5.9431 12.7409C5.44866 13.2354 5.44866 14.048 5.9431 14.5424L10.5081 19.1074C11.0025 19.6018 11.8151 19.6018 12.3095 19.1074C12.804 18.6129 12.804 17.8004 12.3095 17.3059L7.74455 12.7409C7.25011 12.2465 6.43754 12.2465 5.9431 12.7409Z" fill="#FE346E"/>
<path d="M0.370832 7.26439C-0.123611 7.75883 -0.123611 8.5714 0.370832 9.06584L3.38731 12.0823C3.88176 12.5768 4.69433 12.5768 5.18877 12.0823C5.68321 11.5879 5.68321 10.7753 5.18877 10.2809L2.17229 7.26439C1.67785 6.76994 0.865274 6.76994 0.370832 7.26439Z" fill="#FE346E"/>
<path d="M36.4996 35.98L52.4022 20.0774C54.8898 17.5898 54.8898 13.5193 52.4022 11.0356C49.9147 8.54804 45.8442 8.54804 43.3566 11.0356L31.9768 22.4154C22.4942 31.5262 19.1443 27.54 18.2129 26.7044L27.3735 35.8995C30.252 38.7895 33.9009 38.5825 36.4996 35.9838V35.98Z" fill="#B4254E"/>
<path d="M53.191 10.1774L69.0936 26.0801C71.5812 28.5676 71.1136 31.8217 68.626 34.3093C66.1385 36.7968 62.9342 36.7661 60.4467 34.2786L48.6682 23.742C39.1856 14.6312 35.8357 18.6174 34.9043 19.453L44.0649 10.2579C46.9434 7.36791 50.5923 7.57488 53.191 10.1736V10.1774Z" fill="#FE346E"/>
<path d="M109.973 23.5L105.677 6.7H108.245L111.389 19.024L114.521 6.7H116.789L119.933 19.024L123.077 6.7H125.645L121.373 23.5H118.505L115.661 12.376L112.817 23.5H109.973ZM130.855 23.812C129.751 23.812 128.743 23.528 127.831 22.96C126.927 22.392 126.203 21.632 125.659 20.68C125.123 19.72 124.855 18.66 124.855 17.5C124.855 16.62 125.011 15.8 125.323 15.04C125.635 14.272 126.063 13.6 126.607 13.024C127.159 12.44 127.799 11.984 128.527 11.656C129.255 11.328 130.031 11.164 130.855 11.164C131.775 11.164 132.619 11.356 133.387 11.74C134.155 12.116 134.811 12.64 135.355 13.312C135.899 13.976 136.299 14.744 136.555 15.616C136.811 16.48 136.887 17.4 136.783 18.376H127.531C127.635 18.928 127.835 19.428 128.131 19.876C128.435 20.316 128.819 20.664 129.283 20.92C129.755 21.176 130.279 21.308 130.855 21.316C131.463 21.316 132.015 21.164 132.511 20.86C133.015 20.556 133.427 20.136 133.747 19.6L136.279 20.188C135.799 21.252 135.075 22.124 134.107 22.804C133.139 23.476 132.055 23.812 130.855 23.812ZM127.447 16.468H134.263C134.183 15.892 133.979 15.372 133.651 14.908C133.331 14.436 132.927 14.064 132.439 13.792C131.959 13.512 131.431 13.372 130.855 13.372C130.287 13.372 129.759 13.508 129.271 13.78C128.791 14.052 128.391 14.424 128.071 14.896C127.759 15.36 127.551 15.884 127.447 16.468ZM138.006 23.5V5.5H140.502V23.5H138.006ZM142.773 23.5V5.5H145.269V23.5H142.773ZM153.781 11.164C154.949 11.164 156.009 11.448 156.961 12.016C157.921 12.584 158.685 13.348 159.253 14.308C159.821 15.26 160.105 16.32 160.105 17.488C160.105 18.36 159.941 19.18 159.613 19.948C159.285 20.708 158.829 21.38 158.245 21.964C157.669 22.54 156.997 22.992 156.229 23.32C155.469 23.648 154.653 23.812 153.781 23.812C152.941 23.812 152.205 23.62 151.573 23.236C150.949 22.844 150.437 22.344 150.037 21.736V23.5H147.541V5.5H150.037V13.24C150.437 12.624 150.949 12.124 151.573 11.74C152.205 11.356 152.941 11.164 153.781 11.164ZM153.757 21.388C154.453 21.388 155.089 21.212 155.665 20.86C156.241 20.508 156.697 20.036 157.033 19.444C157.377 18.852 157.549 18.2 157.549 17.488C157.549 16.76 157.377 16.1 157.033 15.508C156.689 14.916 156.229 14.448 155.653 14.104C155.077 13.752 154.445 13.576 153.757 13.576C153.061 13.576 152.449 13.752 151.921 14.104C151.393 14.456 150.981 14.928 150.685 15.52C150.389 16.112 150.241 16.768 150.241 17.488C150.241 18.208 150.389 18.864 150.685 19.456C150.981 20.048 151.393 20.52 151.921 20.872C152.449 21.216 153.061 21.388 153.757 21.388ZM166.705 23.812C165.601 23.812 164.593 23.528 163.681 22.96C162.777 22.392 162.053 21.632 161.509 20.68C160.973 19.72 160.705 18.66 160.705 17.5C160.705 16.62 160.861 15.8 161.173 15.04C161.485 14.272 161.913 13.6 162.457 13.024C163.009 12.44 163.649 11.984 164.377 11.656C165.105 11.328 165.881 11.164 166.705 11.164C167.625 11.164 168.469 11.356 169.237 11.74C170.005 12.116 170.661 12.64 171.205 13.312C171.749 13.976 172.149 14.744 172.405 15.616C172.661 16.48 172.737 17.4 172.633 18.376H163.381C163.485 18.928 163.685 19.428 163.981 19.876C164.285 20.316 164.669 20.664 165.133 20.92C165.605 21.176 166.129 21.308 166.705 21.316C167.313 21.316 167.865 21.164 168.361 20.86C168.865 20.556 169.277 20.136 169.597 19.6L172.129 20.188C171.649 21.252 170.925 22.124 169.957 22.804C168.989 23.476 167.905 23.812 166.705 23.812ZM163.297 16.468H170.113C170.033 15.892 169.829 15.372 169.501 14.908C169.181 14.436 168.777 14.064 168.289 13.792C167.809 13.512 167.281 13.372 166.705 13.372C166.137 13.372 165.609 13.508 165.121 13.78C164.641 14.052 164.241 14.424 163.921 14.896C163.609 15.36 163.401 15.884 163.297 16.468ZM173.786 11.5H176.282V23.5H173.786V11.5ZM175.058 9.76C174.674 9.76 174.354 9.636 174.098 9.388C173.842 9.14 173.714 8.828 173.714 8.452C173.714 8.084 173.842 7.776 174.098 7.528C174.354 7.272 174.67 7.144 175.046 7.144C175.414 7.144 175.726 7.272 175.982 7.528C176.238 7.776 176.366 8.084 176.366 8.452C176.366 8.828 176.238 9.14 175.982 9.388C175.734 9.636 175.426 9.76 175.058 9.76ZM189.259 15.976V23.5H186.763V16.588C186.763 16.052 186.631 15.564 186.367 15.124C186.111 14.684 185.763 14.336 185.323 14.08C184.891 13.816 184.403 13.684 183.859 13.684C183.331 13.684 182.847 13.816 182.407 14.08C181.967 14.336 181.615 14.684 181.351 15.124C181.087 15.564 180.955 16.052 180.955 16.588V23.5H178.459V11.5H180.955V12.772C181.371 12.276 181.883 11.884 182.491 11.596C183.099 11.308 183.755 11.164 184.459 11.164C185.347 11.164 186.155 11.38 186.883 11.812C187.611 12.244 188.187 12.824 188.611 13.552C189.043 14.28 189.259 15.088 189.259 15.976ZM199.952 11.5H202.448V23.812C202.448 24.636 202.272 25.396 201.92 26.092C201.576 26.788 201.108 27.388 200.516 27.892C199.924 28.404 199.244 28.8 198.476 29.08C197.716 29.36 196.92 29.5 196.088 29.5C195.248 29.5 194.44 29.32 193.664 28.96C192.888 28.608 192.204 28.128 191.612 27.52C191.028 26.912 190.592 26.224 190.304 25.456L192.596 24.424C192.756 24.92 193.012 25.36 193.364 25.744C193.724 26.128 194.14 26.432 194.612 26.656C195.092 26.88 195.584 26.992 196.088 26.992C196.584 26.992 197.06 26.912 197.516 26.752C197.98 26.6 198.392 26.384 198.752 26.104C199.12 25.824 199.412 25.488 199.628 25.096C199.844 24.704 199.952 24.276 199.952 23.812V21.784C199.56 22.392 199.056 22.884 198.44 23.26C197.824 23.628 197.108 23.812 196.292 23.812C195.444 23.812 194.644 23.648 193.892 23.32C193.14 22.992 192.48 22.54 191.912 21.964C191.344 21.38 190.9 20.708 190.58 19.948C190.26 19.188 190.1 18.372 190.1 17.5C190.1 16.628 190.26 15.812 190.58 15.052C190.9 14.284 191.344 13.612 191.912 13.036C192.48 12.452 193.14 11.996 193.892 11.668C194.644 11.34 195.444 11.176 196.292 11.176C197.108 11.176 197.824 11.364 198.44 11.74C199.056 12.108 199.56 12.6 199.952 13.216V11.5ZM196.316 21.4C197.012 21.4 197.62 21.224 198.14 20.872C198.66 20.512 199.064 20.036 199.352 19.444C199.64 18.852 199.784 18.204 199.784 17.5C199.784 16.78 199.636 16.128 199.34 15.544C199.052 14.952 198.648 14.48 198.128 14.128C197.608 13.768 197.004 13.588 196.316 13.588C195.644 13.588 195.028 13.764 194.468 14.116C193.916 14.468 193.476 14.94 193.148 15.532C192.82 16.124 192.656 16.78 192.656 17.5C192.656 18.22 192.82 18.876 193.148 19.468C193.484 20.06 193.928 20.532 194.48 20.884C195.04 21.228 195.652 21.4 196.316 21.4Z" fill="white"/>
<path d="M110.042 40.5V32.1H113.024C113.456 32.1 113.846 32.188 114.194 32.364C114.546 32.54 114.824 32.794 115.028 33.126C115.236 33.454 115.34 33.848 115.34 34.308C115.34 34.532 115.304 34.752 115.232 34.968C115.16 35.184 115.058 35.374 114.926 35.538C114.794 35.702 114.634 35.818 114.446 35.886C114.702 35.95 114.914 36.066 115.082 36.234C115.254 36.398 115.39 36.59 115.49 36.81C115.59 37.03 115.66 37.258 115.7 37.494C115.744 37.73 115.766 37.954 115.766 38.166C115.766 38.614 115.658 39.014 115.442 39.366C115.226 39.718 114.936 39.996 114.572 40.2C114.212 40.4 113.814 40.5 113.378 40.5H110.042ZM111.29 39.42H113.258C113.514 39.42 113.746 39.356 113.954 39.228C114.166 39.1 114.334 38.924 114.458 38.7C114.582 38.472 114.644 38.216 114.644 37.932C114.644 37.684 114.582 37.45 114.458 37.23C114.334 37.006 114.166 36.826 113.954 36.69C113.746 36.554 113.514 36.486 113.258 36.486H111.29V39.42ZM111.29 35.424H112.892C113.22 35.424 113.502 35.324 113.738 35.124C113.974 34.924 114.092 34.65 114.092 34.302C114.092 33.93 113.974 33.652 113.738 33.468C113.502 33.28 113.22 33.186 112.892 33.186H111.29V35.424ZM116.241 38.25V34.5H117.489V37.944C117.489 38.212 117.555 38.456 117.687 38.676C117.819 38.896 117.995 39.072 118.215 39.204C118.435 39.332 118.677 39.396 118.941 39.396C119.209 39.396 119.451 39.332 119.667 39.204C119.887 39.072 120.061 38.896 120.189 38.676C120.321 38.456 120.387 38.212 120.387 37.944V34.5H121.635L121.641 40.5H120.393L120.387 39.852C120.183 40.1 119.929 40.296 119.625 40.44C119.321 40.584 118.995 40.656 118.647 40.656C118.203 40.656 117.799 40.548 117.435 40.332C117.071 40.116 116.781 39.826 116.565 39.462C116.349 39.098 116.241 38.694 116.241 38.25ZM124.344 40.614C124.028 40.594 123.72 40.53 123.42 40.422C123.12 40.314 122.856 40.168 122.628 39.984C122.404 39.796 122.236 39.576 122.124 39.324L123.186 38.868C123.238 38.976 123.328 39.082 123.456 39.186C123.588 39.29 123.742 39.376 123.918 39.444C124.094 39.508 124.278 39.54 124.47 39.54C124.658 39.54 124.832 39.514 124.992 39.462C125.156 39.406 125.29 39.322 125.394 39.21C125.498 39.098 125.55 38.964 125.55 38.808C125.55 38.632 125.49 38.496 125.37 38.4C125.254 38.3 125.108 38.224 124.932 38.172C124.756 38.12 124.58 38.07 124.404 38.022C124.012 37.934 123.652 37.814 123.324 37.662C123 37.506 122.742 37.308 122.55 37.068C122.358 36.824 122.262 36.526 122.262 36.174C122.262 35.79 122.366 35.458 122.574 35.178C122.782 34.894 123.054 34.676 123.39 34.524C123.73 34.372 124.092 34.296 124.476 34.296C124.956 34.296 125.396 34.398 125.796 34.602C126.196 34.806 126.502 35.086 126.714 35.442L125.724 36.03C125.664 35.91 125.574 35.802 125.454 35.706C125.334 35.61 125.198 35.534 125.046 35.478C124.894 35.418 124.736 35.384 124.572 35.376C124.368 35.368 124.178 35.392 124.002 35.448C123.83 35.5 123.692 35.584 123.588 35.7C123.484 35.816 123.432 35.964 123.432 36.144C123.432 36.32 123.494 36.452 123.618 36.54C123.742 36.624 123.898 36.692 124.086 36.744C124.278 36.796 124.474 36.854 124.674 36.918C125.03 37.03 125.364 37.168 125.676 37.332C125.988 37.492 126.24 37.69 126.432 37.926C126.624 38.162 126.716 38.45 126.708 38.79C126.708 39.166 126.594 39.496 126.366 39.78C126.142 40.064 125.85 40.28 125.49 40.428C125.13 40.576 124.748 40.638 124.344 40.614ZM127.33 34.5H128.578V40.5H127.33V34.5ZM127.966 33.63C127.774 33.63 127.614 33.568 127.486 33.444C127.358 33.32 127.294 33.164 127.294 32.976C127.294 32.792 127.358 32.638 127.486 32.514C127.614 32.386 127.772 32.322 127.96 32.322C128.144 32.322 128.3 32.386 128.428 32.514C128.556 32.638 128.62 32.792 128.62 32.976C128.62 33.164 128.556 33.32 128.428 33.444C128.304 33.568 128.15 33.63 127.966 33.63ZM135.067 36.738V40.5H133.819V37.044C133.819 36.776 133.753 36.532 133.621 36.312C133.493 36.092 133.319 35.918 133.099 35.79C132.883 35.658 132.639 35.592 132.367 35.592C132.103 35.592 131.861 35.658 131.641 35.79C131.421 35.918 131.245 36.092 131.113 36.312C130.981 36.532 130.915 36.776 130.915 37.044V40.5H129.667V34.5H130.915V35.136C131.123 34.888 131.379 34.692 131.683 34.548C131.987 34.404 132.315 34.332 132.667 34.332C133.111 34.332 133.515 34.44 133.879 34.656C134.243 34.872 134.531 35.162 134.743 35.526C134.959 35.89 135.067 36.294 135.067 36.738ZM138.487 40.656C137.935 40.656 137.431 40.514 136.975 40.23C136.523 39.946 136.161 39.566 135.889 39.09C135.621 38.61 135.487 38.08 135.487 37.5C135.487 37.06 135.565 36.65 135.721 36.27C135.877 35.886 136.091 35.55 136.363 35.262C136.639 34.97 136.959 34.742 137.323 34.578C137.687 34.414 138.075 34.332 138.487 34.332C138.947 34.332 139.369 34.428 139.753 34.62C140.137 34.808 140.465 35.07 140.737 35.406C141.009 35.738 141.209 36.122 141.337 36.558C141.465 36.99 141.503 37.45 141.451 37.938H136.825C136.877 38.214 136.977 38.464 137.125 38.688C137.277 38.908 137.469 39.082 137.701 39.21C137.937 39.338 138.199 39.404 138.487 39.408C138.791 39.408 139.067 39.332 139.315 39.18C139.567 39.028 139.773 38.818 139.933 38.55L141.199 38.844C140.959 39.376 140.597 39.812 140.113 40.152C139.629 40.488 139.087 40.656 138.487 40.656ZM136.783 36.984H140.191C140.151 36.696 140.049 36.436 139.885 36.204C139.725 35.968 139.523 35.782 139.279 35.646C139.039 35.506 138.775 35.436 138.487 35.436C138.203 35.436 137.939 35.504 137.695 35.64C137.455 35.776 137.255 35.962 137.095 36.198C136.939 36.43 136.835 36.692 136.783 36.984ZM143.968 40.614C143.652 40.594 143.344 40.53 143.044 40.422C142.744 40.314 142.48 40.168 142.252 39.984C142.028 39.796 141.86 39.576 141.748 39.324L142.81 38.868C142.862 38.976 142.952 39.082 143.08 39.186C143.212 39.29 143.366 39.376 143.542 39.444C143.718 39.508 143.902 39.54 144.094 39.54C144.282 39.54 144.456 39.514 144.616 39.462C144.78 39.406 144.914 39.322 145.018 39.21C145.122 39.098 145.174 38.964 145.174 38.808C145.174 38.632 145.114 38.496 144.994 38.4C144.878 38.3 144.732 38.224 144.556 38.172C144.38 38.12 144.204 38.07 144.028 38.022C143.636 37.934 143.276 37.814 142.948 37.662C142.624 37.506 142.366 37.308 142.174 37.068C141.982 36.824 141.886 36.526 141.886 36.174C141.886 35.79 141.99 35.458 142.198 35.178C142.406 34.894 142.678 34.676 143.014 34.524C143.354 34.372 143.716 34.296 144.1 34.296C144.58 34.296 145.02 34.398 145.42 34.602C145.82 34.806 146.126 35.086 146.338 35.442L145.348 36.03C145.288 35.91 145.198 35.802 145.078 35.706C144.958 35.61 144.822 35.534 144.67 35.478C144.518 35.418 144.36 35.384 144.196 35.376C143.992 35.368 143.802 35.392 143.626 35.448C143.454 35.5 143.316 35.584 143.212 35.7C143.108 35.816 143.056 35.964 143.056 36.144C143.056 36.32 143.118 36.452 143.242 36.54C143.366 36.624 143.522 36.692 143.71 36.744C143.902 36.796 144.098 36.854 144.298 36.918C144.654 37.03 144.988 37.168 145.3 37.332C145.612 37.492 145.864 37.69 146.056 37.926C146.248 38.162 146.34 38.45 146.332 38.79C146.332 39.166 146.218 39.496 145.99 39.78C145.766 40.064 145.474 40.28 145.114 40.428C144.754 40.576 144.372 40.638 143.968 40.614ZM148.86 40.614C148.544 40.594 148.236 40.53 147.936 40.422C147.636 40.314 147.372 40.168 147.144 39.984C146.92 39.796 146.752 39.576 146.64 39.324L147.702 38.868C147.754 38.976 147.844 39.082 147.972 39.186C148.104 39.29 148.258 39.376 148.434 39.444C148.61 39.508 148.794 39.54 148.986 39.54C149.174 39.54 149.348 39.514 149.508 39.462C149.672 39.406 149.806 39.322 149.91 39.21C150.014 39.098 150.066 38.964 150.066 38.808C150.066 38.632 150.006 38.496 149.886 38.4C149.77 38.3 149.624 38.224 149.448 38.172C149.272 38.12 149.096 38.07 148.92 38.022C148.528 37.934 148.168 37.814 147.84 37.662C147.516 37.506 147.258 37.308 147.066 37.068C146.874 36.824 146.778 36.526 146.778 36.174C146.778 35.79 146.882 35.458 147.09 35.178C147.298 34.894 147.57 34.676 147.906 34.524C148.246 34.372 148.608 34.296 148.992 34.296C149.472 34.296 149.912 34.398 150.312 34.602C150.712 34.806 151.018 35.086 151.23 35.442L150.24 36.03C150.18 35.91 150.09 35.802 149.97 35.706C149.85 35.61 149.714 35.534 149.562 35.478C149.41 35.418 149.252 35.384 149.088 35.376C148.884 35.368 148.694 35.392 148.518 35.448C148.346 35.5 148.208 35.584 148.104 35.7C148 35.816 147.948 35.964 147.948 36.144C147.948 36.32 148.01 36.452 148.134 36.54C148.258 36.624 148.414 36.692 148.602 36.744C148.794 36.796 148.99 36.854 149.19 36.918C149.546 37.03 149.88 37.168 150.192 37.332C150.504 37.492 150.756 37.69 150.948 37.926C151.14 38.162 151.232 38.45 151.224 38.79C151.224 39.166 151.11 39.496 150.882 39.78C150.658 40.064 150.366 40.28 150.006 40.428C149.646 40.576 149.264 40.638 148.86 40.614ZM157.528 40.656C157.068 40.656 156.626 40.584 156.202 40.44C155.778 40.296 155.408 40.09 155.092 39.822C154.776 39.55 154.55 39.228 154.414 38.856L155.584 38.418C155.652 38.61 155.782 38.782 155.974 38.934C156.17 39.082 156.402 39.198 156.67 39.282C156.942 39.366 157.228 39.408 157.528 39.408C157.848 39.408 158.148 39.356 158.428 39.252C158.712 39.148 158.94 39.004 159.112 38.82C159.288 38.636 159.376 38.42 159.376 38.172C159.376 37.916 159.284 37.706 159.1 37.542C158.92 37.378 158.688 37.248 158.404 37.152C158.124 37.056 157.832 36.984 157.528 36.936C156.94 36.84 156.412 36.7 155.944 36.516C155.48 36.332 155.112 36.074 154.84 35.742C154.572 35.41 154.438 34.978 154.438 34.446C154.438 33.946 154.58 33.51 154.864 33.138C155.152 32.766 155.53 32.478 155.998 32.274C156.47 32.066 156.98 31.962 157.528 31.962C157.98 31.962 158.416 32.034 158.836 32.178C159.26 32.318 159.632 32.524 159.952 32.796C160.276 33.064 160.508 33.39 160.648 33.774L159.466 34.2C159.398 34.004 159.268 33.834 159.076 33.69C158.884 33.542 158.652 33.426 158.38 33.342C158.112 33.258 157.828 33.216 157.528 33.216C157.208 33.212 156.908 33.264 156.628 33.372C156.352 33.476 156.126 33.62 155.95 33.804C155.774 33.988 155.686 34.202 155.686 34.446C155.686 34.746 155.768 34.974 155.932 35.13C156.096 35.286 156.316 35.402 156.592 35.478C156.872 35.55 157.184 35.616 157.528 35.676C158.08 35.764 158.59 35.91 159.058 36.114C159.53 36.318 159.908 36.59 160.192 36.93C160.48 37.266 160.624 37.68 160.624 38.172C160.624 38.668 160.48 39.104 160.192 39.48C159.908 39.852 159.53 40.142 159.058 40.35C158.59 40.554 158.08 40.656 157.528 40.656ZM164.151 40.656C163.599 40.656 163.095 40.514 162.639 40.23C162.187 39.946 161.825 39.566 161.553 39.09C161.285 38.61 161.151 38.08 161.151 37.5C161.151 37.06 161.229 36.65 161.385 36.27C161.541 35.886 161.755 35.55 162.027 35.262C162.303 34.97 162.623 34.742 162.987 34.578C163.351 34.414 163.739 34.332 164.151 34.332C164.703 34.332 165.205 34.474 165.657 34.758C166.113 35.042 166.475 35.424 166.743 35.904C167.015 36.384 167.151 36.916 167.151 37.5C167.151 37.936 167.073 38.344 166.917 38.724C166.761 39.104 166.545 39.44 166.269 39.732C165.997 40.02 165.679 40.246 165.315 40.41C164.955 40.574 164.567 40.656 164.151 40.656ZM164.151 39.408C164.483 39.408 164.781 39.32 165.045 39.144C165.309 38.968 165.517 38.736 165.669 38.448C165.825 38.156 165.903 37.84 165.903 37.5C165.903 37.152 165.823 36.832 165.663 36.54C165.507 36.248 165.297 36.016 165.033 35.844C164.769 35.668 164.475 35.58 164.151 35.58C163.823 35.58 163.525 35.668 163.257 35.844C162.993 36.02 162.783 36.254 162.627 36.546C162.475 36.838 162.399 37.156 162.399 37.5C162.399 37.856 162.479 38.178 162.639 38.466C162.799 38.754 163.011 38.984 163.275 39.156C163.543 39.324 163.835 39.408 164.151 39.408ZM167.739 40.5V31.5H168.987V40.5H167.739ZM169.882 38.25V34.5H171.13V37.944C171.13 38.212 171.196 38.456 171.328 38.676C171.46 38.896 171.636 39.072 171.856 39.204C172.076 39.332 172.318 39.396 172.582 39.396C172.85 39.396 173.092 39.332 173.308 39.204C173.528 39.072 173.702 38.896 173.83 38.676C173.962 38.456 174.028 38.212 174.028 37.944V34.5H175.276L175.282 40.5H174.034L174.028 39.852C173.824 40.1 173.57 40.296 173.266 40.44C172.962 40.584 172.636 40.656 172.288 40.656C171.844 40.656 171.44 40.548 171.076 40.332C170.712 40.116 170.422 39.826 170.206 39.462C169.99 39.098 169.882 38.694 169.882 38.25ZM179.353 35.748H178.093L178.087 40.5H176.839L176.845 35.748H175.891V34.5H176.845L176.839 32.616H178.087L178.093 34.5H179.353V35.748ZM180.046 34.5H181.294V40.5H180.046V34.5ZM180.682 33.63C180.49 33.63 180.33 33.568 180.202 33.444C180.074 33.32 180.01 33.164 180.01 32.976C180.01 32.792 180.074 32.638 180.202 32.514C180.33 32.386 180.488 32.322 180.676 32.322C180.86 32.322 181.016 32.386 181.144 32.514C181.272 32.638 181.336 32.792 181.336 32.976C181.336 33.164 181.272 33.32 181.144 33.444C181.02 33.568 180.866 33.63 180.682 33.63ZM184.964 40.656C184.412 40.656 183.908 40.514 183.452 40.23C183 39.946 182.638 39.566 182.366 39.09C182.098 38.61 181.964 38.08 181.964 37.5C181.964 37.06 182.042 36.65 182.198 36.27C182.354 35.886 182.568 35.55 182.84 35.262C183.116 34.97 183.436 34.742 183.8 34.578C184.164 34.414 184.552 34.332 184.964 34.332C185.516 34.332 186.018 34.474 186.47 34.758C186.926 35.042 187.288 35.424 187.556 35.904C187.828 36.384 187.964 36.916 187.964 37.5C187.964 37.936 187.886 38.344 187.73 38.724C187.574 39.104 187.358 39.44 187.082 39.732C186.81 40.02 186.492 40.246 186.128 40.41C185.768 40.574 185.38 40.656 184.964 40.656ZM184.964 39.408C185.296 39.408 185.594 39.32 185.858 39.144C186.122 38.968 186.33 38.736 186.482 38.448C186.638 38.156 186.716 37.84 186.716 37.5C186.716 37.152 186.636 36.832 186.476 36.54C186.32 36.248 186.11 36.016 185.846 35.844C185.582 35.668 185.288 35.58 184.964 35.58C184.636 35.58 184.338 35.668 184.07 35.844C183.806 36.02 183.596 36.254 183.44 36.546C183.288 36.838 183.212 37.156 183.212 37.5C183.212 37.856 183.292 38.178 183.452 38.466C183.612 38.754 183.824 38.984 184.088 39.156C184.356 39.324 184.648 39.408 184.964 39.408ZM194.033 36.738V40.5H192.785V37.044C192.785 36.776 192.719 36.532 192.587 36.312C192.459 36.092 192.285 35.918 192.065 35.79C191.849 35.658 191.605 35.592 191.333 35.592C191.069 35.592 190.827 35.658 190.607 35.79C190.387 35.918 190.211 36.092 190.079 36.312C189.947 36.532 189.881 36.776 189.881 37.044V40.5H188.633V34.5H189.881V35.136C190.089 34.888 190.345 34.692 190.649 34.548C190.953 34.404 191.281 34.332 191.633 34.332C192.077 34.332 192.481 34.44 192.845 34.656C193.209 34.872 193.497 35.162 193.709 35.526C193.925 35.89 194.033 36.294 194.033 36.738ZM196.731 40.614C196.415 40.594 196.107 40.53 195.807 40.422C195.507 40.314 195.243 40.168 195.015 39.984C194.791 39.796 194.623 39.576 194.511 39.324L195.573 38.868C195.625 38.976 195.715 39.082 195.843 39.186C195.975 39.29 196.129 39.376 196.305 39.444C196.481 39.508 196.665 39.54 196.857 39.54C197.045 39.54 197.219 39.514 197.379 39.462C197.543 39.406 197.677 39.322 197.781 39.21C197.885 39.098 197.937 38.964 197.937 38.808C197.937 38.632 197.877 38.496 197.757 38.4C197.641 38.3 197.495 38.224 197.319 38.172C197.143 38.12 196.967 38.07 196.791 38.022C196.399 37.934 196.039 37.814 195.711 37.662C195.387 37.506 195.129 37.308 194.937 37.068C194.745 36.824 194.649 36.526 194.649 36.174C194.649 35.79 194.753 35.458 194.961 35.178C195.169 34.894 195.441 34.676 195.777 34.524C196.117 34.372 196.479 34.296 196.863 34.296C197.343 34.296 197.783 34.398 198.183 34.602C198.583 34.806 198.889 35.086 199.101 35.442L198.111 36.03C198.051 35.91 197.961 35.802 197.841 35.706C197.721 35.61 197.585 35.534 197.433 35.478C197.281 35.418 197.123 35.384 196.959 35.376C196.755 35.368 196.565 35.392 196.389 35.448C196.217 35.5 196.079 35.584 195.975 35.7C195.871 35.816 195.819 35.964 195.819 36.144C195.819 36.32 195.881 36.452 196.005 36.54C196.129 36.624 196.285 36.692 196.473 36.744C196.665 36.796 196.861 36.854 197.061 36.918C197.417 37.03 197.751 37.168 198.063 37.332C198.375 37.492 198.627 37.69 198.819 37.926C199.011 38.162 199.103 38.45 199.095 38.79C199.095 39.166 198.981 39.496 198.753 39.78C198.529 40.064 198.237 40.28 197.877 40.428C197.517 40.576 197.135 40.638 196.731 40.614Z" fill="white"/>
</svg>
