<svg width="20" height="21" viewBox="0 0 20 21" fill="none" xmlns="http://www.w3.org/2000/svg">
<g id="Line Rounded/Phone">
<g id="Phone">
<path id="Vector" d="M12.2519 17.8861L12.261 17.8925C13.0481 18.3936 13.9825 18.6112 14.91 18.5094C15.8374 18.4075 16.7024 17.9923 17.3619 17.3323L17.9349 16.7593C18.0618 16.6324 18.1626 16.4818 18.2313 16.316C18.3 16.1501 18.3354 15.9724 18.3354 15.7929C18.3354 15.6134 18.3 15.4356 18.2313 15.2698C18.1626 15.104 18.0618 14.9533 17.9349 14.8264L15.5183 12.4117C15.3914 12.2847 15.2408 12.184 15.0749 12.1153C14.9091 12.0466 14.7314 12.0112 14.5519 12.0112C14.3724 12.0112 14.1946 12.0466 14.0288 12.1153C13.863 12.184 13.7123 12.2847 13.5854 12.4117C13.3292 12.6678 12.9817 12.8117 12.6194 12.8117C12.2571 12.8117 11.9097 12.6678 11.6535 12.4117L7.7895 8.54683C7.53336 8.29061 7.38946 7.94314 7.38946 7.58085C7.38946 7.21855 7.53336 6.87108 7.7895 6.61486C7.91647 6.48797 8.01719 6.33731 8.08591 6.17148C8.15463 6.00566 8.19 5.82792 8.19 5.64841C8.19 5.46891 8.15463 5.29117 8.08591 5.12534C8.01719 4.95952 7.91647 4.80886 7.7895 4.68197L5.37385 2.26723C5.11763 2.01108 4.77016 1.86719 4.40786 1.86719C4.04556 1.86719 3.69809 2.01108 3.44187 2.26723L2.86802 2.84017C2.20817 3.49981 1.79311 4.36483 1.69142 5.29229C1.58973 6.21975 1.80749 7.15415 2.30874 7.9411L2.3142 7.95021C4.96139 11.8668 8.33483 15.2396 12.2519 17.8861V17.8861Z" stroke="white" stroke-width="1.4" stroke-linecap="round" stroke-linejoin="round"/>
</g>
</g>
</svg>
