<svg width="145" height="64" viewBox="0 0 145 64" fill="none" xmlns="http://www.w3.org/2000/svg">
<g id="Component 20">
<path id="Logo/Pinterest" d="M25.8896 17.0313C24.337 17.2072 22.0082 17.9376 20.6831 18.6681C17.1229 20.6025 14.7137 23.6191 13.5091 27.6368C13.2681 28.4213 12.9871 30.5587 13.0005 31.5597C13.0005 32.439 13.2681 34.5898 13.4288 35.1038C13.5091 35.3473 13.6831 35.929 13.8303 36.3754C14.0712 37.133 15.2357 39.5138 15.4364 39.6761C15.4766 39.7167 15.6907 39.9872 15.8915 40.2984C16.3867 41.0424 17.685 42.368 18.6621 43.1256C19.4116 43.7072 21.5263 44.9382 21.794 44.9518C21.8609 44.9518 21.8743 44.4377 21.8342 43.7614C21.7405 42.2598 22.0215 40.2172 22.6238 38.134C22.7309 37.7823 22.8112 37.3223 22.8112 37.1194C22.8112 36.9165 22.8648 36.7001 22.9317 36.6324C22.9986 36.5513 23.1191 36.159 23.186 35.7532C23.2663 35.3473 23.4001 34.7251 23.4938 34.3734C23.6277 33.8458 23.6143 33.6429 23.4269 33.0747C23.1592 32.209 23.1458 30.8022 23.4135 30.1258C24.0426 28.516 24.7386 27.9073 25.9164 27.9073C27.3351 27.9073 28.0177 28.9895 27.7501 30.8022C27.6296 31.6273 27.295 32.9259 27.0808 33.3318C27.0273 33.4535 26.9336 33.7917 26.8935 34.0758C26.8399 34.3734 26.7328 34.7927 26.6659 35.0227C26.4785 35.5503 26.8399 36.5783 27.3218 36.9706C27.7768 37.3359 28.7271 37.4441 29.5971 37.2412C30.2128 37.1059 30.4671 36.9436 31.1095 36.3213C31.8724 35.5638 32.448 34.6845 32.448 34.2652C32.448 34.1434 32.5149 33.9811 32.5952 33.8999C32.97 33.5211 33.1707 30.5722 32.8897 29.3277C32.5818 27.9614 31.6315 26.6222 30.4002 25.8376C29.1688 25.0395 26.6258 24.8095 25.0598 25.3506C23.9623 25.7294 22.9852 26.3652 22.3561 27.1092C21.794 27.772 21.2051 28.8542 21.2051 29.233C21.2051 29.3683 21.1382 29.5441 21.0579 29.6253C20.9776 29.7064 20.8839 30.2205 20.8437 30.7751C20.7768 31.6003 20.8303 31.979 21.0712 32.7907C21.2319 33.3453 21.5263 33.9946 21.7003 34.2381C22.0617 34.7251 22.0617 34.9145 21.7271 36.2131C21.6334 36.5648 21.4728 36.8895 21.3791 36.93C20.5359 37.2547 18.8227 35.2121 18.2471 33.183C18.033 32.4119 18.0196 29.6659 18.2338 28.8542C18.3274 28.516 18.4881 28.0561 18.5951 27.8126C18.7022 27.5826 18.7959 27.3527 18.7959 27.2986C18.7959 27.2445 19.0636 26.7845 19.3982 26.284C21.1382 23.6327 23.9623 22.2258 27.5359 22.2258C28.3524 22.2258 29.1956 22.2799 29.4231 22.3476C31.2701 22.9292 31.7654 23.1186 32.4881 23.5515C33.8935 24.4037 34.9107 25.5671 35.9279 27.515C35.9948 27.6368 36.0885 27.9614 36.1287 28.232C36.1822 28.5025 36.2759 28.7595 36.3428 28.8001C36.4098 28.8407 36.4633 29.72 36.4633 30.7616C36.4633 32.6419 36.3295 33.3994 35.7673 34.9415C35.1382 36.6324 33.5187 38.4992 32.0464 39.2297C31.2032 39.6355 29.6239 40.0819 28.9948 40.0819C28.1516 40.0819 26.4919 39.3785 26.0369 38.8103C25.8227 38.5533 25.6219 38.648 25.6219 39.0133C25.6219 39.1485 25.5684 39.3785 25.4881 39.5138C25.4212 39.6355 25.3007 40.0143 25.2338 40.3525C24.8456 42.1381 24.2969 43.5855 23.4537 44.9382C23.1994 45.3576 23.4135 45.6011 24.1095 45.6958C24.4575 45.7499 24.926 45.8446 25.1401 45.9122C25.6755 46.0881 28.5799 46.061 29.5569 45.8851C30.4403 45.7228 31.8724 45.317 32.5149 45.0465C36.557 43.3691 39.622 39.9602 40.9471 35.6179C41.6564 33.3047 41.6966 30.6128 41.0541 27.9073C40.84 27.028 40.7731 26.8251 40.1975 25.4724C39.3677 23.4974 37.4939 21.1842 35.5933 19.7638C33.9604 18.5464 32.3543 17.843 29.8514 17.2342C29.1554 17.0719 26.6793 16.9366 25.8896 17.0313ZM61.5858 21.9147C61.0638 21.9958 60.234 22.8616 60.0198 23.538C59.7923 24.282 60.0198 25.0801 60.6623 25.7023C62.081 27.0957 64.5437 25.7835 64.2359 23.7815C64.0485 22.5099 62.8975 21.6982 61.5858 21.9147ZM46.9968 22.7128C46.8763 22.8481 46.8764 39.1621 47.0102 39.3514C47.0771 39.4597 47.6526 39.5002 48.7769 39.4867L50.45 39.4732L50.5169 36.7271C50.5704 34.4951 50.624 33.954 50.7846 33.8593C50.8917 33.7917 51.8018 33.7241 52.8056 33.7241C55.0007 33.7241 55.9242 33.5617 56.928 33.0206C58.2397 32.3037 59.0026 31.2756 59.4175 29.6388C59.6718 28.6107 59.6718 27.8667 59.4041 26.8116C59.1632 25.8647 59.0561 25.6347 58.4806 24.8636C57.7712 23.9032 57.0485 23.3756 55.8707 22.9563C55.2148 22.7399 54.6661 22.6993 51.1192 22.6587C48.9108 22.6316 47.0503 22.6587 46.9968 22.7128ZM54.3448 26.0811C55.2416 26.3652 55.6833 26.771 55.884 27.5015C56.1383 28.4619 55.951 29.3547 55.3888 29.8958C54.7731 30.4775 54.2244 30.6128 52.4309 30.6128C51.253 30.6128 50.8917 30.5722 50.7311 30.3963C50.5571 30.234 50.5169 29.8417 50.5169 28.2996C50.5169 25.8647 50.5035 25.8782 52.3639 25.8782C53.167 25.8782 53.9433 25.9594 54.3448 26.0811ZM77.8211 25.283C77.8211 26.2164 77.7541 27.0957 77.6872 27.2445C77.5935 27.4203 77.4061 27.5015 77.0849 27.5015C76.844 27.5015 76.6165 27.5556 76.5897 27.6368C76.5763 27.7044 76.5763 28.1778 76.6165 28.6784C76.6834 29.5712 76.6968 29.5847 77.0983 29.6794C77.3258 29.72 77.5801 29.8011 77.6604 29.8552C77.7809 29.9229 77.8211 30.9915 77.8211 33.697C77.8211 37.3359 77.8344 37.4711 78.1289 38.0122C78.7446 39.1621 79.7083 39.5679 81.6624 39.5138L82.974 39.4732L83.0142 38.161L83.0544 36.8354H82.7197C82.2111 36.8354 81.4616 36.4295 81.3813 36.1049C81.3411 35.9425 81.301 34.5086 81.301 32.8989C81.301 30.6804 81.3411 29.9364 81.475 29.8282C81.5687 29.747 81.9435 29.6659 82.3048 29.6388L82.974 29.5982V27.5691L82.2379 27.5285C81.8364 27.5015 81.4616 27.4068 81.4081 27.3256C81.3545 27.2309 81.301 26.3517 81.301 25.3642V23.5785H77.8211V25.283ZM127.571 23.6597C127.517 23.7138 127.477 24.566 127.477 25.5535C127.477 27.4744 127.464 27.5015 126.728 27.5015C126.393 27.5015 126.393 27.515 126.433 28.5431C126.473 29.5712 126.487 29.5982 126.835 29.6388C127.022 29.6659 127.25 29.7605 127.317 29.8417C127.397 29.9364 127.477 31.5732 127.517 33.6564C127.557 35.6585 127.624 37.4847 127.678 37.7011C127.839 38.2963 128.668 39.0538 129.458 39.3109C130.341 39.6085 132.59 39.6355 132.818 39.3514C132.925 39.2297 132.965 38.7427 132.938 38.0393L132.898 36.903L132.429 36.8218C131.921 36.7407 131.345 36.4701 131.198 36.2401C131.144 36.159 131.091 34.6845 131.091 32.9665C131.091 29.4359 131.011 29.6659 132.175 29.6659C132.938 29.6659 133.005 29.5306 132.938 28.2996L132.898 27.5691L132.028 27.5015L131.158 27.4338L131.091 25.54L131.024 23.6462L129.338 23.6056C128.414 23.5921 127.624 23.6191 127.571 23.6597ZM71.1958 27.1768C70.5399 27.3527 69.777 27.7991 69.2684 28.3266C68.6527 28.976 68.4921 28.9354 68.4252 28.1102L68.3851 27.5691H65.039V39.4732L66.7254 39.5002C68.3851 39.5408 68.4252 39.5273 68.5055 39.2297C68.5457 39.0674 68.5858 37.3494 68.5858 35.4015C68.5858 31.5462 68.5992 31.4379 69.3889 30.6804C69.7369 30.3422 69.9243 30.2746 70.6738 30.234L71.5438 30.1799L72.0658 30.7345C72.6814 31.3838 72.6145 30.7616 72.6681 36.3619C72.6814 37.8499 72.6948 39.1621 72.7082 39.2973C72.735 39.4867 72.9491 39.5138 74.4482 39.4867L76.148 39.4732V29.977L75.7599 29.2059C75.0906 27.8667 74.06 27.2309 72.4807 27.1498C71.9185 27.1362 71.343 27.1362 71.1958 27.1768ZM87.9263 27.1768C86.4808 27.5691 85.7848 27.9614 84.888 28.8542C83.6834 30.0852 83.1347 31.5191 83.1347 33.4535C83.148 36.8489 85.2494 39.365 88.3546 39.6626C91.0047 39.9196 93.0525 39.135 94.3642 37.3629C94.5515 37.1059 94.9531 36.2807 94.9531 36.1319C94.9531 36.0778 94.1768 36.0237 93.2399 36.0237H91.5267L91.1251 36.4431C90.6567 36.93 90.0008 37.2412 89.3986 37.2412C88.7963 37.2412 87.8727 36.8083 87.4444 36.3484C87.1232 35.9831 86.6548 34.928 86.6548 34.5628C86.6548 34.441 87.6318 34.4004 90.7771 34.4004C93.0391 34.4004 94.9531 34.3463 95.0468 34.2922C95.2475 34.1569 95.0602 32.0061 94.7657 31.2215C94.1634 29.5847 93.0257 28.2049 91.8747 27.7179C91.5401 27.5826 91.1519 27.4068 91.0181 27.3392C90.737 27.1903 88.3546 27.0686 87.9263 27.1768ZM90.5362 30.1393C91.0582 30.5045 91.5133 31.3703 91.4464 31.8573C91.4062 32.1684 91.3794 32.1684 89.1175 32.209C86.5075 32.2496 86.4941 32.2361 86.9091 31.2621C87.2035 30.5857 87.7924 29.977 88.3412 29.8011C88.9703 29.5982 89.9875 29.7605 90.5362 30.1393ZM107.735 27.1768C106.183 27.5962 105.098 28.2861 104.255 29.3547C103.921 29.7876 103.653 30.1934 103.653 30.2746C103.653 30.3422 103.559 30.5857 103.439 30.8157C103.318 31.0321 103.144 31.7085 103.051 32.3172C102.582 35.2121 103.867 37.9175 106.276 39.135L107.2 39.6085H109.141C111.148 39.6085 111.322 39.5679 112.554 38.905C113.45 38.4181 114.923 36.5242 114.695 36.1455C114.642 36.0778 113.879 36.0237 112.982 36.0237H111.336L111.001 36.416C109.663 37.9446 107.16 37.16 106.624 35.0362C106.544 34.7521 106.544 34.5086 106.611 34.4545C106.678 34.414 108.592 34.3869 110.881 34.4004C114.146 34.4004 115.03 34.3734 115.043 34.2381C115.163 32.5472 114.36 30.0446 113.357 28.9624C112.794 28.3537 111.817 27.6773 111.336 27.5556C111.121 27.5015 110.881 27.4068 110.787 27.3392C110.599 27.1903 108.15 27.0686 107.735 27.1768ZM109.823 29.8147C110.425 30.0311 111.121 30.7886 111.228 31.3703C111.389 32.2496 111.402 32.2496 108.913 32.209C106.678 32.1684 106.664 32.1684 106.624 31.8573C106.571 31.4785 107.039 30.5451 107.441 30.1934C108.016 29.7064 109.02 29.5441 109.823 29.8147ZM119.38 27.1768C116.636 27.8397 115.645 28.8272 115.632 30.8833C115.632 33.1018 116.729 34.0352 119.982 34.6169C122.217 35.0092 122.86 35.3609 122.833 36.2131C122.819 36.8218 122.404 37.2141 121.575 37.39C120.531 37.6199 119.714 37.3629 119.058 36.6189L118.536 36.0237H116.917C115.605 36.0237 115.297 36.0643 115.297 36.2131C115.297 36.6054 115.833 37.6335 116.274 38.1475C116.689 38.5939 117.011 38.8103 118.269 39.4191C118.389 39.4867 119.045 39.5949 119.701 39.6761C120.919 39.8249 123.034 39.6896 123.569 39.4191C123.689 39.365 124.037 39.1891 124.332 39.0538C125.095 38.6886 125.817 37.8634 126.085 37.0788C126.38 36.186 126.299 34.9415 125.884 34.0758C125.389 33.0612 124.078 32.3307 122.123 31.979C119.607 31.5326 119.567 31.5191 119.165 31.1268C118.684 30.6263 118.684 30.4504 119.165 29.9093C119.554 29.4765 119.58 29.4629 120.651 29.4629C121.722 29.4629 121.749 29.4765 122.137 29.9093C122.351 30.1528 122.525 30.4369 122.525 30.5451C122.525 30.7075 122.806 30.748 124.198 30.748C126.045 30.748 125.991 30.7886 125.67 29.8282C125.081 28.1237 123.569 27.258 121.053 27.1633C120.276 27.1362 119.527 27.1362 119.38 27.1768ZM101.578 27.4609C100.989 27.6638 100.173 28.3402 99.9187 28.8272C99.6644 29.3141 99.4369 29.1112 99.3699 28.2996L99.303 27.5691H95.9569L95.9167 33.2506C95.9034 36.3754 95.9167 39.0674 95.9569 39.2432C96.0238 39.5408 96.064 39.5408 97.6701 39.5138C98.5936 39.5002 99.3432 39.4191 99.3967 39.3379C99.4502 39.2703 99.5038 37.8364 99.5038 36.159C99.5038 33.5076 99.5305 33.0342 99.7581 32.439C100.227 31.208 101.23 30.4775 102.488 30.4775C102.836 30.4775 102.984 30.4099 103.024 30.234C103.118 29.8417 103.131 28.0155 103.051 27.6097C102.97 27.285 102.903 27.2309 102.542 27.2445C102.301 27.258 101.873 27.3527 101.578 27.4609ZM60.3544 27.6638C60.3143 27.7585 60.3009 30.4234 60.3143 33.5888L60.3544 39.3379L61.9472 39.4055C62.9108 39.4461 63.6068 39.4191 63.7139 39.3379C63.8611 39.2297 63.9013 38.0799 63.9013 33.4806C63.9147 30.3422 63.8745 27.7044 63.8344 27.6368C63.7005 27.4338 60.4213 27.4609 60.3544 27.6638Z" fill="#A3A3A4"/>
</g>
</svg>
