<svg width="145" height="64" viewBox="0 0 145 64" fill="none" xmlns="http://www.w3.org/2000/svg">
<g id="Component 19">
<path id="Logo/Twitch" d="M115.218 22.6557H111.178V17H102.308L98.2283 22.6557H90.9793L88.5554 25.0796V22.6557H82.8997V17H65.1246V22.6557H40.1182L36.038 17H27.1504V36.3911L38.4618 47.7025H49.7733V44.4707L53.0051 47.7025H74.8201V44.4707L78.0519 47.7025H88.5554V44.4707L91.7873 47.7025H111.986L119.258 40.4309V26.6955L115.218 22.6557ZM40.8857 30.7353H35.23V32.3513H40.8857V38.815H31.9982L28.7663 35.5831V18.6159H35.23V24.2717H40.8857V30.7353ZM65.1246 38.815H45.7335L42.5017 35.5831V24.2717H48.9653V32.3513H50.5813V24.2717H57.045V32.3513H58.6609V24.2717H65.1246V38.815ZM73.2042 38.815H66.7405V24.2717H73.2042V38.815ZM73.2042 22.6557H66.7405V18.6159H73.2042V22.6557ZM86.9395 30.7353H81.2838V32.3513H86.9395V38.815H78.0519L74.8201 35.5831V18.6159H81.2838V24.2717H86.9395V30.7353ZM101.483 30.7353H95.0191V32.3513H101.483V38.815H91.7873L88.5554 35.5831V27.5035L91.7873 24.2717H101.483V30.7353ZM117.642 38.815H111.178V30.7353H109.562V38.815H103.099V18.6159H109.562V24.2717H114.41L117.642 27.5035V38.815Z" fill="#A3A3A4"/>
</g>
</svg>
