<svg width="24" height="25" viewBox="0 0 24 25" fill="none" xmlns="http://www.w3.org/2000/svg">
<g id="icon / jam-icons / outline &#38; logos / twitter">
<path id="Vector" d="M22 6.40668C21.2504 6.73405 20.4565 6.94871 19.644 7.04368C20.4968 6.54291 21.138 5.74878 21.448 4.80968C20.64 5.28 19.7587 5.61128 18.841 5.78968C18.4545 5.38488 17.9897 5.06306 17.4748 4.84385C16.9598 4.62464 16.4056 4.51264 15.846 4.51468C13.58 4.51468 11.743 6.32468 11.743 8.55468C11.743 8.87068 11.779 9.17968 11.849 9.47468C10.2236 9.39737 8.63212 8.98208 7.17617 8.25531C5.72022 7.52855 4.43176 6.50626 3.393 5.25368C3.02883 5.86808 2.83742 6.56946 2.839 7.28368C2.8397 7.95164 3.00683 8.60891 3.32529 9.19607C3.64375 9.78323 4.1035 10.2818 4.663 10.6467C4.01248 10.6257 3.37602 10.452 2.805 10.1397V10.1897C2.805 12.1477 4.22 13.7807 6.095 14.1527C5.74261 14.2462 5.37958 14.2936 5.015 14.2937C4.75 14.2937 4.493 14.2687 4.242 14.2187C4.51008 15.0266 5.02311 15.731 5.70982 16.234C6.39653 16.737 7.22284 17.0137 8.074 17.0257C6.61407 18.1502 4.82182 18.7577 2.979 18.7527C2.647 18.7527 2.321 18.7327 2 18.6967C3.88125 19.8874 6.06259 20.518 8.289 20.5147C15.836 20.5147 19.962 14.3577 19.962 9.01868L19.948 8.49568C20.7529 7.92935 21.4481 7.22152 22 6.40668Z" fill="white"/>
</g>
</svg>
