<svg width="145" height="64" viewBox="0 0 145 64" fill="none" xmlns="http://www.w3.org/2000/svg">
<g id="Component 18">
<path id="Logo/Webflow" d="M53.0128 29.274C53.0128 27.2177 51.0133 25.0338 47.5531 25.0338C43.6674 25.0338 39.3989 27.8843 38.7466 33.5709C38.08 39.3143 41.6537 41.8669 45.2557 41.8669C48.8577 41.8669 50.7438 40.4629 52.6725 38.591C51.0133 36.5064 48.8719 37.4707 48.4606 37.6834C48.0069 37.9103 47.4254 38.2223 46.2342 38.2223C44.8445 38.2223 43.4263 37.5983 43.4263 35.0032C52.3321 34.124 53.0128 31.3303 53.0128 29.274ZM48.6025 29.6144C48.5457 30.2525 48.2905 31.3445 43.7809 31.9543C44.731 28.5791 46.5462 28.3239 47.3829 28.3239C48.1628 28.3239 48.6592 28.9337 48.6025 29.6144ZM33.5137 30.1674C33.5137 30.1674 31.5993 36.1802 31.4433 36.6766C31.3865 36.1661 29.9826 25.3742 29.9826 25.3742C26.7209 25.3742 24.9767 27.6999 24.0549 30.1532C24.0549 30.1532 21.7292 36.1802 21.5306 36.6908C21.5165 36.2228 21.1761 30.2241 21.1761 30.2241C20.9776 27.2177 18.2264 25.3884 16 25.3884L18.6944 41.7392C22.1121 41.7251 23.9556 39.4135 24.9199 36.9602C24.9199 36.9602 26.9762 31.6423 27.0613 31.4012C27.0755 31.6281 28.5361 41.7392 28.5361 41.7392C31.968 41.7392 33.8115 39.5695 34.8042 37.2013L39.6116 25.3884C36.2223 25.3884 34.4355 27.6999 33.5137 30.1674ZM65.6057 25.0055C63.4927 25.0055 61.876 26.1542 60.5146 27.8417V27.8275L61.7342 18C58.9263 18 56.6432 20.4392 56.2036 24.0695L54.0764 41.6116C55.693 41.6116 57.409 41.1436 58.3307 39.9524C59.1532 41.016 60.387 41.8669 62.2164 41.8669C66.9529 41.8669 70.2004 36.3646 70.2004 31.2026C70.172 26.4945 67.8888 25.0055 65.6057 25.0055ZM65.166 33.4433C64.6697 36.322 63.0672 38.279 61.5215 38.279C59.9616 38.279 59.295 37.5842 59.295 37.5842C59.5928 35.0599 59.7772 33.5142 60.3445 32.1811C60.9117 30.8481 62.2589 28.7209 63.6628 28.7209C65.0384 28.7209 65.6624 30.5503 65.166 33.4433ZM82.0274 25.3884H78.7232L78.7374 25.2182C78.9643 23.0627 79.4748 21.9282 81.1624 21.7438C82.3111 21.6304 82.8216 21.0348 82.9492 20.3824C83.0485 19.8719 83.3605 18.0993 83.3605 18.0993C76.7237 18.0567 74.6391 20.9213 74.1002 25.2891L74.086 25.3884H74.0151C72.9373 25.3884 71.7461 26.608 71.5476 28.1537L71.4767 28.7209H73.6889L71.8312 44.065L71.2639 46.8161C71.3348 46.8161 71.4199 46.8303 71.4908 46.8303C74.5965 46.7168 76.5819 44.2635 77.0215 40.704L78.468 28.7209H79.5032C80.5242 28.7209 81.7154 27.6999 81.9282 25.9982L82.0274 25.3884ZM99.215 25.1048C95.4003 25.1048 91.7982 27.9126 90.6921 32.323C89.586 36.7333 91.2594 41.952 96.8751 41.952C102.477 41.952 105.71 36.5206 105.71 31.9968C105.71 27.5014 102.661 25.1048 99.215 25.1048ZM100.761 33.3015C100.562 35.301 99.683 38.3358 97.2722 38.3358C94.8472 38.3358 95.1875 34.7905 95.4286 33.1029C95.6839 31.3019 96.6907 28.7351 98.8605 28.7351C100.803 28.7351 100.988 31.0467 100.761 33.3015ZM124.557 30.1674C124.557 30.1674 122.642 36.1802 122.486 36.6766C122.43 36.1661 121.026 25.3742 121.026 25.3742C117.764 25.3742 116.02 27.6999 115.098 30.1532C115.098 30.1532 112.772 36.1802 112.574 36.6908C112.559 36.2228 112.219 30.2241 112.219 30.2241C112.021 27.2177 109.269 25.3884 107.043 25.3884L109.723 41.7392C113.141 41.7251 114.984 39.4135 115.949 36.9602C115.949 36.9602 118.005 31.6423 118.076 31.4012C118.104 31.6281 119.551 41.7392 119.551 41.7392C122.983 41.7392 124.826 39.5695 125.819 37.2013L130.626 25.3884C127.251 25.3884 125.464 27.6999 124.557 30.1674ZM85.1473 18.0993L82.3678 40.5197L81.8005 43.285C81.8714 43.285 81.9565 43.2992 82.0274 43.2992C85.0197 43.2566 87.1468 40.6331 87.5439 37.3289L89.1464 24.4666C89.6285 20.5384 87.2886 18.0993 85.1473 18.0993Z" fill="#A3A3A4"/>
</g>
</svg>
