<svg width="24" height="25" viewBox="0 0 24 25" fill="none" xmlns="http://www.w3.org/2000/svg">
<g id="icon / jam-icons / outline &#38; logos / youtube">
<path id="Vector" d="M17.812 5.51663H6.145C3.855 5.51663 2 7.35163 2 9.61563V15.3836C2 17.6476 3.856 19.4836 6.145 19.4836H17.812C20.102 19.4836 21.957 17.6476 21.957 15.3836V9.61563C21.957 7.35163 20.101 5.51562 17.812 5.51562V5.51663ZM15.009 12.7796L9.552 15.3546C9.51872 15.3707 9.48192 15.378 9.44503 15.376C9.40815 15.374 9.37237 15.3626 9.34103 15.3431C9.3097 15.3235 9.28382 15.2964 9.2658 15.2641C9.24779 15.2318 9.23822 15.1956 9.238 15.1586V9.84963C9.23867 9.8125 9.24872 9.77614 9.26722 9.74395C9.28573 9.71176 9.31208 9.68477 9.34382 9.6655C9.37556 9.64624 9.41167 9.63532 9.44877 9.63377C9.48587 9.63221 9.52276 9.64008 9.556 9.65663L15.014 12.3916C15.0504 12.4098 15.0809 12.4378 15.102 12.4725C15.1232 12.5071 15.1341 12.5471 15.1336 12.5877C15.1331 12.6283 15.1211 12.668 15.0991 12.7021C15.077 12.7362 15.0458 12.7634 15.009 12.7806V12.7796Z" fill="white"/>
</g>
</svg>
